<svg width="49" height="16" viewBox="0 0 49 16" fill="none" xmlns="http://www.w3.org/2000/svg">
<path d="M2.17842 3.96974C2.28283 4.30196 2.48691 4.61045 2.79066 4.89521C3.0944 5.17997 3.45035 5.46474 3.85851 5.7495C4.27616 6.02476 4.7033 6.32376 5.13994 6.64649C5.58606 6.96922 6.00371 7.33941 6.39288 7.75706C6.79155 8.17471 7.11428 8.66355 7.36107 9.22358C7.30412 9.59377 7.16649 9.9687 6.94817 10.3484C6.72985 10.7186 6.46882 11.0555 6.16508 11.3593C5.86133 11.663 5.54809 11.9003 5.22536 12.0712C4.88365 12.1281 4.48973 12.1661 4.04361 12.1851C3.59748 12.2136 3.13237 12.2041 2.64828 12.1566C2.17368 12.1092 1.71331 12.0142 1.26719 11.8719C1.1343 11.7674 0.977679 11.6108 0.797331 11.402C0.616982 11.1932 0.460364 10.9986 0.327475 10.8182L0.555284 8.62558C0.735633 8.56863 0.944457 8.53066 1.18176 8.51168C1.42855 8.49269 1.64687 8.51168 1.83671 8.56863L1.96485 10.4196C2.34453 10.4765 2.75744 10.4955 3.20356 10.4765C3.65918 10.4575 4.1053 10.4053 4.54194 10.3199C4.98806 10.225 5.37249 10.0921 5.69522 9.92124C5.50538 9.54156 5.23486 9.1951 4.88365 8.88187C4.53245 8.55914 4.14327 8.25065 3.71613 7.95639C3.29848 7.65265 2.88083 7.34416 2.46318 7.03092C2.04553 6.71768 1.66585 6.38546 1.32414 6.03426C0.991917 5.68305 0.740379 5.28913 0.569522 4.8525C0.635966 4.48231 0.749871 4.11687 0.911235 3.75617C1.08209 3.38598 1.27668 3.05376 1.495 2.75951C1.7228 2.45576 1.94587 2.22795 2.16418 2.07608C3.54053 1.68691 4.9406 1.6347 6.36441 1.91946C6.45933 1.97641 6.55425 2.07608 6.64917 2.21846C6.74409 2.35135 6.83426 2.49373 6.91969 2.6456C7.01461 2.79747 7.09055 2.91612 7.1475 3.00155L6.93393 4.93793C6.75358 5.00437 6.5495 5.03759 6.32169 5.03759C6.10338 5.03759 5.88506 5.01386 5.66674 4.9664L5.5386 3.42869C5.21587 3.40022 4.85518 3.40022 4.45651 3.42869C4.05784 3.44768 3.65918 3.49988 3.26051 3.58531C2.86185 3.67074 2.50115 3.79888 2.17842 3.96974ZM15.2386 10.1206C15.3145 10.2345 15.3952 10.4101 15.4807 10.6474C15.5756 10.8752 15.6325 11.0983 15.6515 11.3166L14.0141 12.2278C13.587 12.1234 13.1741 11.9478 12.7754 11.701C12.3863 11.4542 12.0825 11.2122 11.8642 10.9749C11.7693 10.6806 11.6554 10.3294 11.5225 9.92124C11.3991 9.5036 11.3231 9.02899 11.2947 8.49744C10.9624 8.76322 10.6634 9.07171 10.3977 9.42291L10.4973 12C10.2885 12.057 10.0227 12.0854 9.7 12.0854C9.37728 12.0854 9.10675 12.057 8.88844 12C8.54672 11.6773 8.27145 11.2739 8.06263 10.7898C8.11009 10.524 8.19552 10.2582 8.31891 9.99243C8.44231 9.72666 8.59418 9.46563 8.77453 9.20934L8.84572 8.35506L8.93115 2.14727L7.82058 2.43203C7.75414 2.31813 7.67346 2.16151 7.57854 1.96217C7.48362 1.75335 7.42666 1.53978 7.40768 1.32146L9.32982 0.381751C9.42474 0.391243 9.55762 0.438703 9.72848 0.524131C9.90883 0.60956 10.0844 0.709226 10.2553 0.823131C10.4356 0.937035 10.5685 1.0367 10.654 1.12213L10.2553 7.55773C10.559 7.28246 10.8723 7.02143 11.195 6.77464C11.5177 6.52784 11.8357 6.30003 12.1489 6.09121C12.2154 5.90137 12.2961 5.71627 12.391 5.53593C12.4859 5.34608 12.6188 5.14675 12.7897 4.93793C13.008 4.88097 13.2595 4.84775 13.5443 4.83826C13.8385 4.81928 14.0901 4.83352 14.2989 4.88098C14.4603 5.08031 14.5837 5.3271 14.6691 5.62135C14.764 5.90611 14.8162 6.18613 14.8257 6.4614C13.9524 6.86956 13.1931 7.26348 12.5476 7.64316C12.6141 8.04182 12.7517 8.51168 12.9605 9.05272C13.1693 9.59377 13.4399 10.1111 13.7721 10.6047L15.2386 10.1206ZM23.078 5.94883C23.0495 6.29054 22.9688 6.65124 22.8359 7.03092C22.7031 7.4106 22.5275 7.79028 22.3091 8.16996L22.5085 12.8543C22.4135 13.0631 22.2712 13.3052 22.0813 13.5804C21.901 13.8557 21.6969 14.1215 21.4691 14.3778C21.2508 14.634 21.0325 14.8381 20.8141 14.99C20.387 15.1039 19.9219 15.1798 19.4188 15.2178C18.9252 15.2653 18.4269 15.2748 17.9238 15.2463C17.4302 15.2178 16.9699 15.1656 16.5427 15.0897C16.5332 14.9378 16.538 14.7479 16.557 14.5201C16.5759 14.3018 16.6044 14.0835 16.6424 13.8652C16.6898 13.6469 16.7468 13.4713 16.8132 13.3384C17.1265 13.4523 17.4919 13.5377 17.9096 13.5947C18.3272 13.6611 18.7496 13.6943 19.1768 13.6943C19.6134 13.6943 20.0121 13.6706 20.3728 13.6231C20.5911 13.1201 20.7524 12.5885 20.8569 12.0285C20.9708 11.4684 21.0372 10.7945 21.0562 10.0067C20.705 10.4243 20.3395 10.804 19.9599 11.1457C19.5897 11.4779 19.2432 11.7437 18.9205 11.943C18.5977 12.1329 18.3225 12.2278 18.0947 12.2278C17.9523 12.1519 17.7624 12.019 17.5251 11.8291C17.2973 11.6393 17.0838 11.4257 16.8844 11.1884C16.6851 10.9511 16.557 10.7233 16.5 10.505L16.8275 6.44716L15.7739 6.71768C15.6884 6.60378 15.603 6.44241 15.5176 6.23359C15.4322 6.02476 15.3799 5.81119 15.361 5.59288L17.2831 4.65317C17.5299 4.77656 17.7909 4.93793 18.0662 5.13726C18.351 5.33659 18.5693 5.55491 18.7211 5.79221C18.5503 6.38072 18.4269 6.98346 18.351 7.60044C18.2845 8.20793 18.256 8.77745 18.2655 9.30901C18.275 9.83107 18.313 10.263 18.3794 10.6047C18.6452 10.4908 18.9252 10.2962 19.2195 10.0209C19.5232 9.73615 19.8175 9.39444 20.1022 8.99577C20.3965 8.59711 20.6575 8.16996 20.8853 7.71435L20.7429 5.02336C20.9613 4.9664 21.2318 4.9142 21.5545 4.86674C21.8772 4.81928 22.143 4.82402 22.3518 4.88098C22.6556 5.19421 22.8976 5.55016 23.078 5.94883ZM29.8389 9.92124L30.1949 10.6331C30.062 10.9179 29.8769 11.2027 29.6396 11.4874C29.4023 11.7627 29.1555 12.0095 28.8992 12.2278L25.2543 11.8719L24.6705 12.2278C24.2719 12.0854 23.9634 11.8719 23.7451 11.5871L24.3003 7.21602L24.1295 2.03336L24.5424 1.7486C24.6468 1.76759 24.7892 1.81979 24.9695 1.90522C25.1594 1.99065 25.3445 2.08557 25.5248 2.18998C25.7052 2.2944 25.8381 2.39406 25.9235 2.48898L25.7669 7.40111V10.4908L29.8389 9.92124ZM32.3847 3.8416C31.8911 3.57582 31.445 3.22462 31.0463 2.78798C31.0558 2.63611 31.1175 2.46525 31.2314 2.27541C31.3548 2.07608 31.4972 1.89573 31.6585 1.73437C31.8294 1.56351 31.9907 1.4591 32.1426 1.42113C32.2945 1.42113 32.4653 1.48283 32.6552 1.60622C32.845 1.72013 33.0206 1.86251 33.182 2.03336C33.3434 2.19473 33.4383 2.35135 33.4668 2.50322C33.4573 2.66458 33.3908 2.84493 33.2674 3.04427C33.144 3.23411 33.0016 3.40496 32.8403 3.55684C32.6789 3.69922 32.527 3.79414 32.3847 3.8416ZM33.9509 10.0921C34.0173 10.206 34.098 10.3816 34.1929 10.6189C34.2878 10.8467 34.3448 11.0698 34.3638 11.2881L32.4416 12.2278C31.7202 11.8956 31.2266 11.4684 30.9609 10.9464L31.2599 6.47564L30.2205 6.78887C30.154 6.67497 30.0734 6.50411 29.9784 6.2763C29.8835 6.039 29.8266 5.81119 29.8076 5.59288L31.7297 4.65317C31.8246 4.66266 31.9623 4.71486 32.1426 4.80979C32.323 4.90471 32.4986 5.00912 32.6694 5.12302C32.8498 5.23693 32.9874 5.33185 33.0823 5.40778L32.6837 8.54015V10.4765L33.9509 10.0921ZM42.279 10.1633C42.3644 10.2772 42.4499 10.4386 42.5353 10.6474C42.6207 10.8562 42.6729 11.0698 42.6919 11.2881L40.7698 12.2278C40.523 12.1044 40.2619 11.943 39.9867 11.7437C39.7114 11.5444 39.4931 11.3261 39.3317 11.0888C39.5026 10.4908 39.6165 9.88802 39.6734 9.28053C39.7304 8.67304 39.7446 8.10827 39.7161 7.5862C39.6972 7.05465 39.645 6.62276 39.5595 6.29054C39.3222 6.39495 39.0659 6.58005 38.7907 6.84583C38.5249 7.10211 38.2591 7.4106 37.9933 7.7713C37.7276 8.132 37.4808 8.52117 37.253 8.93882L37.1675 12C36.9587 12.057 36.7167 12.0854 36.4414 12.0854C36.1661 12.0854 35.9193 12.057 35.701 12C35.4068 11.6868 35.1647 11.3308 34.9749 10.9321C35.0603 10.505 35.1742 10.0921 35.3166 9.69344C35.4685 9.29477 35.6346 8.91984 35.8149 8.56863L35.8292 8.35506L35.6583 6.39021L34.4196 6.70345C34.3531 6.58954 34.2725 6.43292 34.1775 6.23359C34.0826 6.02476 34.0257 5.81119 34.0067 5.59288L35.9288 4.65317C36.0237 4.66266 36.1566 4.71486 36.3275 4.80979C36.5078 4.90471 36.6834 5.00912 36.8543 5.12302C37.0346 5.22743 37.1675 5.31761 37.253 5.39354L37.196 6.58954C37.7276 5.98205 38.2591 5.50745 38.7907 5.16574C39.3317 4.82402 39.7778 4.65317 40.1291 4.65317C40.2714 4.7291 40.4281 4.86199 40.5989 5.05183C40.7698 5.24167 40.9264 5.45524 41.0688 5.69254C41.2111 5.92035 41.3108 6.14816 41.3678 6.37597L41.1257 10.4623L42.279 10.1633ZM48.6412 9.76463C48.7076 9.85005 48.7788 10.0162 48.8548 10.263C48.9402 10.5098 48.9782 10.7281 48.9687 10.9179C48.5605 11.0888 48.1334 11.2596 47.6872 11.4305C47.2411 11.5918 46.8235 11.7437 46.4343 11.8861C46.0546 12.0285 45.7414 12.1424 45.4946 12.2278C45.2003 12.1519 44.8918 12.0332 44.5691 11.8719C44.2464 11.7105 43.9521 11.5207 43.6863 11.3023C43.4206 11.0745 43.2307 10.8467 43.1168 10.6189L43.3162 6.26207C43.449 6.02476 43.6341 5.78746 43.8714 5.55016C44.1182 5.30337 44.3603 5.08031 44.5976 4.88098C45.1481 4.75758 45.6844 4.68164 46.2065 4.65317C46.738 4.62469 47.2459 4.64842 47.7299 4.72436C47.8154 4.77182 47.9293 4.87623 48.0717 5.03759C48.2235 5.18947 48.3707 5.34608 48.513 5.50745C48.6554 5.66881 48.7503 5.78746 48.7978 5.8634L48.7409 7.98487C48.4941 8.16522 48.1618 8.35506 47.7442 8.55439C47.3265 8.75372 46.8662 8.94831 46.3631 9.13815C45.86 9.3185 45.3569 9.47987 44.8539 9.62225C44.8634 9.80259 44.8776 9.9782 44.8966 10.1491C44.9156 10.3199 44.9393 10.486 44.9678 10.6474L48.6412 9.76463ZM47.2174 6.19088C46.8757 6.14342 46.5434 6.12918 46.2207 6.14816C45.898 6.16715 45.561 6.2241 45.2098 6.31902C45.1149 6.61327 45.039 6.93125 44.982 7.27297C44.9251 7.61468 44.8823 7.96114 44.8539 8.31235C45.262 8.17946 45.6892 8.0086 46.1353 7.79978C46.5909 7.58146 47.0038 7.35365 47.374 7.11635L47.2174 6.19088Z" fill="url(#paint0_linear_277_2094)"/>
<defs>
<linearGradient id="paint0_linear_277_2094" x1="57.5455" y1="7.78865" x2="0" y2="7.78865" gradientUnits="userSpaceOnUse">
<stop stop-color="white"/>
<stop offset="0.87" stop-color="#1CFDFA"/>
</linearGradient>
</defs>
</svg>
