<svg width="824" height="957" viewBox="0 0 824 957" fill="none" xmlns="http://www.w3.org/2000/svg">
<path d="M980.232 685.766H581.201C577.771 685.76 574.483 684.256 572.058 681.584C569.633 678.912 568.268 675.29 568.262 671.511V31.0452C568.273 27.2706 569.641 23.6547 572.066 20.988C574.491 18.3212 577.775 16.8206 581.201 16.8142H980.232C983.658 16.8206 986.943 18.3212 989.367 20.988C991.792 23.6547 993.16 27.2706 993.172 31.0452V671.511C993.166 675.29 991.801 678.912 989.375 681.584C986.95 684.256 983.662 685.76 980.232 685.766ZM581.201 17.4224C579.569 17.4095 577.95 17.7523 576.439 18.4308C574.927 19.1094 573.552 20.1104 572.393 21.3764C571.233 22.6423 570.312 24.1482 569.683 25.8075C569.054 27.4668 568.728 29.2468 568.725 31.0452V671.511C568.725 675.13 570.031 678.601 572.354 681.161C574.677 683.72 577.828 685.158 581.113 685.158H980.232C983.517 685.158 986.668 683.72 988.991 681.161C991.314 678.601 992.62 675.13 992.62 671.511V31.0452C992.62 27.4257 991.314 23.9545 988.991 21.3952C986.668 18.8359 983.517 17.398 980.232 17.398L581.201 17.4224Z" fill="#F0F0F0"/>
<path d="M519.991 685.766H120.872C117.442 685.76 114.154 684.256 111.729 681.584C109.304 678.912 107.938 675.29 107.933 671.511V31.0451C107.938 27.2663 109.304 23.6442 111.729 20.9722C114.154 18.3002 117.442 16.7962 120.872 16.7898H519.991C523.421 16.7962 526.709 18.3002 529.135 20.9722C531.56 23.6442 532.925 27.2663 532.931 31.0451V671.511C532.925 675.29 531.56 678.912 529.135 681.584C526.709 684.256 523.421 685.76 519.991 685.766ZM120.872 17.4223C117.591 17.4223 114.443 18.8568 112.121 21.4108C109.798 23.9649 108.49 27.4298 108.485 31.0451V671.511C108.485 675.13 109.79 678.601 112.113 681.161C114.436 683.72 117.587 685.158 120.872 685.158H519.991C523.277 685.158 526.428 683.72 528.751 681.161C531.074 678.601 532.379 675.13 532.379 671.511V31.0451C532.379 27.4256 531.074 23.9544 528.751 21.3951C526.428 18.8358 523.277 17.398 519.991 17.398L120.872 17.4223Z" fill="#F0F0F0"/>
<path d="M1104.06 834.328H0V834.936H1104.06V834.328Z" fill="#E0E0E0"/>
<path d="M398.413 78.6033L468.123 78.6033C469.952 78.6033 471.435 76.9695 471.435 74.9541V57.6082C471.435 55.5929 469.952 53.9591 468.123 53.9591L398.413 53.9591C396.583 53.9591 395.1 55.5929 395.1 57.6082V74.9541C395.1 76.9695 396.583 78.6033 398.413 78.6033Z" fill="#F0F0F0"/>
<path d="M356.767 110.009L426.478 110.009C428.307 110.009 429.79 108.375 429.79 106.359V89.0135C429.79 86.9981 428.307 85.3643 426.478 85.3643L356.767 85.3643C354.938 85.3643 353.455 86.9981 353.455 89.0135V106.359C353.455 108.375 354.938 110.009 356.767 110.009Z" fill="#F0F0F0"/>
<path d="M212.379 423.479H142.668C140.839 423.479 139.356 425.113 139.356 427.128V444.474C139.356 446.489 140.839 448.123 142.668 448.123H212.379C214.208 448.123 215.691 446.489 215.691 444.474V427.128C215.691 425.113 214.208 423.479 212.379 423.479Z" fill="#F0F0F0"/>
<path d="M254.001 454.908H184.29C182.461 454.908 180.978 456.542 180.978 458.557V475.903C180.978 477.919 182.461 479.552 184.29 479.552H254.001C255.83 479.552 257.313 477.919 257.313 475.903V458.557C257.313 456.542 255.83 454.908 254.001 454.908Z" fill="#F0F0F0"/>
<path d="M884.222 448.34H814.511C812.682 448.34 811.199 449.974 811.199 451.99V469.335C811.199 471.351 812.682 472.985 814.511 472.985H884.222C886.051 472.985 887.534 471.351 887.534 469.335V451.99C887.534 449.974 886.051 448.34 884.222 448.34Z" fill="#F0F0F0"/>
<path d="M947.751 625.218H757.94V834.328H947.751V625.218Z" fill="#F5F5F5"/>
<path d="M354.735 625.218H275.088V834.328H354.735V625.218Z" fill="#E6E6E6"/>
<path d="M293.747 625.218H103.936V834.328H293.747V625.218Z" fill="#F5F5F5"/>
<path d="M213.194 625.218H189.744V833.719H213.194V625.218Z" fill="#FAFAFA"/>
<path d="M757.962 736.462H678.315V834.351H757.962V736.462Z" fill="#E6E6E6"/>
<path d="M696.973 736.462H507.162V834.351H696.973V736.462Z" fill="#F5F5F5"/>
<path d="M616.443 736.462H592.993V834.059H616.443V736.462Z" fill="#FAFAFA"/>
<path d="M391.943 527.328H312.295V625.218H391.943V527.328Z" fill="#E6E6E6"/>
<path d="M330.976 527.328H141.166V625.218H330.976V527.328Z" fill="#F5F5F5"/>
<path d="M250.423 527.328H226.973V624.926H250.423V527.328Z" fill="#FAFAFA"/>
<path d="M784.239 63.6912H609.752V255.918H784.239V63.6912Z" fill="#E6E6E6"/>
<path d="M775.406 246.188V73.4216L618.585 73.4216V246.188H775.406Z" fill="#FAFAFA"/>
<path d="M686.485 206.949C686.485 206.949 715.191 141.901 775.406 140.611V246.188H696.996L686.485 206.949Z" fill="#F0F0F0"/>
<path d="M618.585 188.68C618.585 188.68 644.464 173.719 670.785 184.715C703.907 198.484 723.007 246.188 723.007 246.188H618.585V188.68Z" fill="#F5F5F5"/>
<path d="M672.374 158.661C687.655 158.661 700.042 145.015 700.042 128.18C700.042 111.346 687.655 97.6995 672.374 97.6995C657.094 97.6995 644.707 111.346 644.707 128.18C644.707 145.015 657.094 158.661 672.374 158.661Z" fill="white"/>
<path d="M287.718 63.6912H134.629V390.176H287.718V63.6912Z" fill="#E6E6E6"/>
<path d="M278.887 380.445V73.4216L143.462 73.4216L143.462 380.445H278.887Z" fill="#FAFAFA"/>
<path d="M190.363 199.043C205.644 199.043 218.031 185.396 218.031 168.562C218.031 151.728 205.644 138.081 190.363 138.081C175.083 138.081 162.695 151.728 162.695 168.562C162.695 185.396 175.083 199.043 190.363 199.043Z" fill="white"/>
<path d="M168.79 380.445C168.79 380.445 203.06 198.897 278.887 182.599V380.445H168.79Z" fill="#F0F0F0"/>
<path d="M143.462 272.703C143.462 272.703 160.907 254.167 188.552 265.26C240.488 286.059 269.48 380.445 269.48 380.445H143.462V272.703Z" fill="#F5F5F5"/>
<path d="M1032.72 940.852C1032.72 949.366 819.436 956.275 556.338 956.275C293.24 956.275 79.9565 949.415 79.9565 940.852C79.9565 932.289 293.24 925.454 556.338 925.454C819.436 925.454 1032.72 932.387 1032.72 940.852Z" fill="#F5F5F5"/>
<path d="M849.113 337.047L891.001 378.451H709.251L673.744 337.047H849.113Z" fill="#008CFF"/>
<path opacity="0.5" d="M849.113 337.047L891.001 378.451H709.251L673.744 337.047H849.113Z" fill="black"/>
<path d="M849.202 337.047H673.744V530.345H849.202V337.047Z" fill="#008CFF"/>
<path opacity="0.2" d="M849.202 337.047H673.744V530.345H849.202V337.047Z" fill="black"/>
<path d="M792.85 337.047H617.393V530.345H792.85V337.047Z" fill="#008CFF"/>
<path d="M617.459 337.047L575.571 378.451H757.322L792.828 337.047H617.459Z" fill="#008CFF"/>
<path opacity="0.3" d="M617.459 337.047L575.571 378.451H757.322L792.828 337.047H617.459Z" fill="white"/>
<path d="M707.97 403.653C724.31 403.653 735.417 414.259 735.417 431.75C735.417 450.7 723.228 459.044 706.866 459.044L706.38 469.675H694.301L693.683 448.559H697.702C711.503 448.559 722.124 445.859 722.124 431.75C722.124 422.336 716.868 416.546 708.08 416.546C699.292 416.546 693.926 421.922 693.926 431.336H680.876C680.743 415.062 691.365 403.653 707.97 403.653ZM700.153 499.377C698.406 499.377 696.698 498.807 695.246 497.737C693.793 496.668 692.661 495.148 691.993 493.37C691.324 491.592 691.149 489.636 691.49 487.748C691.831 485.861 692.672 484.127 693.907 482.766C695.143 481.405 696.716 480.479 698.43 480.103C700.143 479.728 701.919 479.92 703.533 480.657C705.147 481.393 706.526 482.641 707.497 484.241C708.467 485.841 708.985 487.722 708.985 489.647C708.985 492.227 708.055 494.702 706.398 496.527C704.742 498.352 702.495 499.377 700.153 499.377Z" fill="white"/>
<path d="M800.425 530.345H593.612V550.367H800.425V530.345Z" fill="#008CFF"/>
<path opacity="0.3" d="M800.425 530.345H593.612V550.367H800.425V530.345Z" fill="black"/>
<path d="M877.246 530.345H800.425V550.367H877.246V530.345Z" fill="#008CFF"/>
<path opacity="0.5" d="M877.246 530.345H800.425V550.367H877.246V530.345Z" fill="black"/>
<path d="M730.493 550.365H718.039V927.157H730.493V550.365Z" fill="#263238"/>
<path opacity="0.2" d="M730.493 550.365H718.039V927.157H730.493V550.365Z" fill="white"/>
<path opacity="0.2" d="M730.493 559.732L718.039 565.424V550.365H730.493V559.732Z" fill="black"/>
<path d="M681.295 919.494H767.258C772.019 919.494 776.585 921.578 779.952 925.287C783.319 928.996 785.21 934.027 785.21 939.273H663.321C663.321 936.673 663.786 934.099 664.69 931.698C665.593 929.297 666.918 927.116 668.587 925.279C670.256 923.442 672.238 921.985 674.419 920.993C676.599 920 678.936 919.491 681.295 919.494Z" fill="#008CFF"/>
<path d="M190.363 743.93C190.363 743.93 205.422 737.873 209.331 755.437C213.239 773 224.39 768.5 226.51 764.632C230.683 757.042 231.257 729.578 224.103 727.924C215.425 725.929 193.255 735.903 190.363 743.93Z" fill="#008CFF"/>
<g opacity="0.4">
<path d="M190.363 743.93C190.363 743.93 205.422 737.873 209.331 755.437C213.239 773 224.39 768.5 226.51 764.632C230.683 757.042 231.257 729.578 224.103 727.924C215.425 725.929 193.255 735.903 190.363 743.93Z" fill="black"/>
</g>
<path d="M223.993 727.924C206.328 728.191 201.646 745.293 198.798 760.375L193.057 748.674L197.12 769.644C196.678 771.955 196.236 774.071 195.707 775.895C194.313 780.363 192.029 784.43 189.022 787.798C186.015 791.166 182.361 793.749 178.329 795.357C178.329 795.357 177.534 789.324 176.827 780.761L183.275 769.619L176.275 772.855C175.502 759.572 175.392 743.663 178.329 734.492C184.003 716.904 199.24 722.329 199.24 722.329L223.993 727.924Z" fill="#008CFF"/>
<path d="M268.023 709.46C268.023 709.46 258.749 706.37 249.033 720.99C239.693 735.051 235.961 736.705 229.623 731.232C223.286 725.758 227.106 695.107 234.283 693.453C242.828 691.482 264.998 701.456 268.023 709.46Z" fill="#008CFF"/>
<g opacity="0.4">
<path d="M268.023 709.46C268.023 709.46 258.749 706.37 249.033 720.99C239.693 735.051 235.961 736.705 229.623 731.232C223.286 725.758 227.106 695.107 234.283 693.453C242.828 691.482 264.998 701.456 268.023 709.46Z" fill="black"/>
</g>
<path d="M297.811 789.324C290.067 786.204 283.315 780.667 278.38 773.39L288.603 746.971L274.582 766.214C273.966 764.738 273.443 763.218 273.014 761.665C266.942 740.476 268.178 694.451 233.268 693.891L268.001 685.182C268.001 685.182 289.729 677.447 297.833 702.551C300.017 710.549 301.177 718.843 301.278 727.194L288.625 714.301C288.625 714.301 297.458 728.313 301.41 734.151C301.307 752.609 300.105 771.039 297.811 789.324Z" fill="#008CFF"/>
<path d="M179.654 668.689C179.654 668.689 194.735 662.632 198.644 680.22C202.552 697.808 222.16 704.546 224.192 695.935C226.4 686.764 221.586 654.093 214.41 652.439C205.82 650.469 182.679 660.686 179.654 668.689Z" fill="#008CFF"/>
<g opacity="0.4">
<path d="M179.654 668.689C179.654 668.689 194.735 662.632 198.644 680.22C202.552 697.808 222.16 704.546 224.192 695.935C226.4 686.764 221.586 654.093 214.41 652.439C205.82 650.469 182.679 660.686 179.654 668.689Z" fill="black"/>
</g>
<path d="M215.05 652.584C186.499 653.047 181.708 684.209 177.512 707.197L162.961 684.063C163.137 684.744 170.844 712.33 173.847 723.253C167.222 742.568 149.778 748.552 149.778 748.552C149.778 748.552 144.942 711.649 146.488 683.309L158.279 672.483L147.128 675.524C147.554 670.85 148.443 666.241 149.778 661.78C157.882 636.699 179.632 644.435 179.632 644.435L215.05 652.584Z" fill="#008CFF"/>
<path d="M226.4 806.206C226.138 806.169 225.9 806.022 225.735 805.795C225.57 805.568 225.492 805.279 225.517 804.99C231.16 744.638 225.968 683.653 210.237 625.51C210.151 625.232 210.169 624.929 210.284 624.665C210.4 624.401 210.605 624.198 210.855 624.099C211.107 624.013 211.379 624.039 211.614 624.171C211.848 624.303 212.028 624.53 212.113 624.804C212.378 625.607 237.286 707.806 227.349 805.233C227.323 805.494 227.213 805.735 227.039 805.914C226.864 806.092 226.638 806.196 226.4 806.206Z" fill="#008CFF"/>
<path d="M264.821 799.151H188.397V810.95H264.821V799.151Z" fill="#263238"/>
<path opacity="0.2" d="M264.821 799.151H188.397V810.95H264.821V799.151Z" fill="white"/>
<path d="M252.478 810.95H200.322C194.073 826.956 173.824 874.198 173.824 888.137C173.824 904.655 192.505 939.053 192.505 939.053C192.505 941.485 260.317 941.485 260.317 939.053C260.317 939.053 278.997 904.655 278.997 888.137C278.997 874.198 258.815 826.956 252.478 810.95Z" fill="#263238"/>
<path d="M334.223 153.383C359.894 153.383 380.704 130.456 380.704 102.176C380.704 73.8947 359.894 50.9685 334.223 50.9685C308.552 50.9685 287.742 73.8947 287.742 102.176C287.742 130.456 308.552 153.383 334.223 153.383Z" fill="#008CFF"/>
<g opacity="0.7">
<path d="M334.223 153.383C359.894 153.383 380.704 130.456 380.704 102.176C380.704 73.8947 359.894 50.9685 334.223 50.9685C308.552 50.9685 287.742 73.8947 287.742 102.176C287.742 130.456 308.552 153.383 334.223 153.383Z" fill="white"/>
</g>
<path d="M334.222 154.429C324.84 154.433 315.668 151.373 307.865 145.634C300.062 139.895 293.98 131.736 290.386 122.189C286.793 112.641 285.851 102.134 287.678 91.9963C289.506 81.8586 294.021 72.5457 300.654 65.2356C307.286 57.9254 315.738 52.9464 324.939 50.9282C334.14 48.91 343.678 49.9434 352.346 53.8976C361.014 57.8518 368.423 64.5492 373.636 73.1427C378.848 81.7362 381.631 91.8398 381.631 102.175C381.619 116.026 376.621 129.305 367.733 139.101C358.846 148.897 346.794 154.409 334.222 154.429ZM334.222 52.0388C325.215 52.034 316.409 54.9724 308.918 60.4823C301.427 65.9922 295.588 73.8261 292.139 82.9928C288.69 92.1595 287.786 102.247 289.542 111.98C291.298 121.712 295.635 130.652 302.004 137.669C308.373 144.686 316.488 149.464 325.323 151.398C334.157 153.333 343.314 152.338 351.635 148.538C359.955 144.738 367.066 138.305 372.067 130.053C377.069 121.8 379.736 112.098 379.732 102.175C379.714 88.8843 374.914 76.1431 366.383 66.7448C357.852 57.3465 346.287 52.0581 334.222 52.0388Z" fill="#008CFF"/>
<path d="M334.598 73.738C344.645 73.738 351.49 80.2575 351.49 91.0341C351.49 102.686 343.983 107.819 333.825 107.819L333.516 114.363H326.097L325.722 101.373H328.195C336.674 101.373 343.21 99.7186 343.21 91.0341C343.306 89.7647 343.148 88.4875 342.746 87.293C342.344 86.0986 341.709 85.0161 340.885 84.1224C340.061 83.2286 339.069 82.5455 337.979 82.1214C336.888 81.6973 335.727 81.5427 334.576 81.6684C329.232 81.6684 325.854 84.9768 325.854 90.7665H317.816C317.838 80.7684 324.375 73.738 334.598 73.738ZM329.784 132.657C328.693 132.676 327.622 132.337 326.706 131.683C325.79 131.03 325.072 130.091 324.642 128.986C324.212 127.881 324.091 126.66 324.293 125.478C324.495 124.297 325.012 123.209 325.777 122.352C326.542 121.495 327.522 120.908 328.591 120.667C329.659 120.425 330.769 120.539 331.779 120.994C332.789 121.45 333.653 122.226 334.261 123.224C334.869 124.222 335.194 125.397 335.194 126.599C335.206 127.39 335.075 128.176 334.808 128.91C334.542 129.644 334.145 130.313 333.641 130.877C333.138 131.44 332.538 131.888 331.875 132.194C331.213 132.499 330.502 132.657 329.784 132.657Z" fill="#008CFF"/>
<path d="M363.281 142.12L378.451 150.416C378.625 150.521 378.824 150.563 379.021 150.537C379.217 150.51 379.402 150.417 379.548 150.269C379.694 150.122 379.794 149.928 379.835 149.714C379.876 149.5 379.855 149.278 379.776 149.078L373.151 130.127C370.448 134.666 367.118 138.713 363.281 142.12Z" fill="#008CFF"/>
<path d="M375.337 235.387C377.546 247.161 468.344 242.49 464.104 227.286C463.151 224.577 462.045 221.937 460.792 219.38C454.896 205.393 445.07 187.756 413.339 187.926C394.239 187.999 369.088 200.722 375.337 235.387Z" fill="#008CFF"/>
<path d="M487.907 896.7L492.567 922.634H504.998L506.677 896.7H487.907Z" fill="#FFC3BD"/>
<path d="M503.365 919.349C503.992 918.481 504.826 917.823 505.774 917.449C506.722 917.075 507.746 917 508.731 917.232C511.712 918.327 515.62 923.728 515.62 923.728C515.62 923.728 531.85 929.469 536.244 929.761C540.638 930.053 544.458 932.778 546.092 942.144H492.876C492.876 942.144 490.778 921.003 490.447 917.402C490.116 913.802 495.327 918.303 495.327 918.303L503.365 919.349Z" fill="#008CFF"/>
<path d="M544.524 939.345H534.941L492.986 938.859C492.456 938.859 492.456 937.934 492.986 937.959H495.813C495.801 937.919 495.801 937.876 495.813 937.837C496.641 935.541 496.646 932.984 495.826 930.684C495.005 928.385 493.422 926.515 491.397 925.454C491.35 925.425 491.309 925.387 491.276 925.341C491.244 925.294 491.219 925.242 491.205 925.185C491.191 925.129 491.186 925.07 491.193 925.011C491.199 924.953 491.216 924.897 491.242 924.846C491.268 924.795 491.303 924.75 491.345 924.714C491.387 924.677 491.435 924.651 491.486 924.635C491.537 924.619 491.591 924.614 491.644 924.621C491.697 924.628 491.748 924.647 491.794 924.676C493.954 925.829 495.642 927.835 496.522 930.296C497.401 932.757 497.408 935.492 496.542 937.959H502.437L544.392 938.445C545.054 938.421 545.054 939.37 544.524 939.345Z" fill="black"/>
<path d="M513.743 927.401C514.123 926.716 514.631 926.127 515.233 925.673C515.834 925.22 516.516 924.912 517.234 924.769C517.951 924.627 518.688 924.653 519.395 924.847C520.103 925.04 520.765 925.397 521.339 925.892C521.758 926.233 522.178 925.454 521.758 925.114C521.089 924.536 520.315 924.123 519.489 923.901C518.663 923.679 517.803 923.653 516.967 923.826C516.132 923.998 515.339 924.365 514.642 924.902C513.945 925.439 513.36 926.133 512.926 926.938C512.617 927.425 513.323 927.887 513.632 927.401H513.743Z" fill="white"/>
<path d="M518.314 928.933C518.693 928.246 519.199 927.655 519.8 927.199C520.401 926.743 521.082 926.433 521.8 926.288C522.517 926.143 523.255 926.167 523.963 926.359C524.671 926.551 525.335 926.906 525.91 927.4C526.352 927.765 526.749 926.987 526.33 926.622C525.659 926.045 524.884 925.633 524.057 925.413C523.23 925.193 522.37 925.169 521.534 925.344C520.698 925.519 519.905 925.889 519.209 926.428C518.513 926.967 517.929 927.663 517.497 928.471C517.188 928.957 517.917 929.395 518.204 928.933H518.314Z" fill="white"/>
<path d="M523.062 930.441C523.44 929.757 523.945 929.169 524.545 928.715C525.145 928.262 525.825 927.954 526.541 927.812C527.256 927.669 527.991 927.695 528.697 927.889C529.403 928.082 530.064 928.438 530.635 928.933C531.077 929.274 531.474 928.495 531.055 928.155C530.388 927.596 529.621 927.198 528.805 926.987C527.989 926.777 527.142 926.758 526.319 926.932C525.496 927.107 524.716 927.47 524.029 928C523.342 928.529 522.764 929.212 522.333 930.004C522.046 930.466 522.752 930.928 523.062 930.441Z" fill="white"/>
<path d="M376.596 896.895L379.179 922.634H391.611L395.343 896.895H376.596Z" fill="#FFC3BD"/>
<path d="M389.977 919.349C390.6 918.483 391.431 917.826 392.375 917.452C393.319 917.078 394.339 917.002 395.321 917.232C398.324 918.327 402.232 923.728 402.232 923.728C402.232 923.728 418.462 929.469 422.856 929.761C427.25 930.053 431.07 932.778 432.704 942.144H379.577C379.577 942.144 377.479 921.003 377.148 917.402C376.816 913.802 382.028 918.303 382.028 918.303L389.977 919.349Z" fill="#008CFF"/>
<path d="M431.048 939.345H421.465L379.511 938.859C378.981 938.859 378.981 937.934 379.511 937.959H382.337C382.325 937.919 382.325 937.876 382.337 937.837C383.165 935.541 383.17 932.984 382.35 930.684C381.53 928.385 379.946 926.515 377.921 925.454C377.874 925.425 377.834 925.387 377.801 925.341C377.768 925.294 377.743 925.242 377.729 925.185C377.715 925.129 377.711 925.07 377.717 925.011C377.723 924.953 377.74 924.897 377.766 924.846C377.792 924.795 377.827 924.75 377.869 924.714C377.911 924.677 377.959 924.651 378.01 924.635C378.061 924.619 378.115 924.614 378.168 924.621C378.221 924.628 378.272 924.647 378.318 924.676C380.479 925.829 382.166 927.835 383.046 930.296C383.925 932.757 383.932 935.492 383.066 937.959H388.961L430.916 938.445C431.667 938.421 431.667 939.37 431.048 939.345Z" fill="black"/>
<path d="M400.355 927.4C400.736 926.715 401.243 926.127 401.845 925.673C402.447 925.22 403.129 924.911 403.846 924.769C404.564 924.627 405.3 924.653 406.008 924.846C406.715 925.04 407.377 925.396 407.951 925.892C408.371 926.232 408.79 925.454 408.371 925.113C407.705 924.553 406.94 924.154 406.125 923.942C405.309 923.729 404.463 923.708 403.64 923.88C402.817 924.053 402.036 924.414 401.349 924.941C400.661 925.467 400.082 926.148 399.649 926.938C399.339 927.425 400.046 927.887 400.355 927.4Z" fill="white"/>
<path d="M404.926 928.933C405.305 928.246 405.811 927.655 406.412 927.199C407.012 926.743 407.694 926.433 408.412 926.288C409.129 926.143 409.866 926.167 410.575 926.359C411.283 926.551 411.947 926.906 412.522 927.4C412.941 927.765 413.361 926.987 412.941 926.622C412.27 926.045 411.495 925.633 410.668 925.413C409.841 925.193 408.981 925.169 408.145 925.344C407.31 925.519 406.517 925.889 405.821 926.428C405.125 926.967 404.541 927.663 404.109 928.471C403.8 928.957 404.528 929.395 404.815 928.933H404.926Z" fill="white"/>
<path d="M409.673 930.441C410.051 929.757 410.557 929.169 411.156 928.715C411.756 928.262 412.436 927.954 413.152 927.812C413.868 927.669 414.603 927.695 415.309 927.889C416.014 928.082 416.675 928.438 417.247 928.933C417.688 929.274 418.086 928.495 417.666 928.155C416.999 927.596 416.233 927.198 415.417 926.987C414.6 926.777 413.753 926.758 412.93 926.932C412.107 927.107 411.327 927.47 410.64 928C409.953 928.529 409.375 929.212 408.944 930.004C408.657 930.466 409.364 930.928 409.673 930.441Z" fill="white"/>
<path d="M483.778 897.625H511.225C513.61 858.703 520.323 729.602 515.023 665.721C518.843 577.1 506.544 459.482 506.544 459.482H419.566C419.566 459.482 425.947 538.202 454.543 664.456C454.344 764.486 476.514 864.492 483.778 897.625Z" fill="#263238"/>
<path opacity="0.2" d="M449.862 643.244C465.584 572.478 451.783 480.743 451.783 480.743L438.203 585.541L449.862 643.244Z" fill="black"/>
<path d="M480.51 896.871L482.52 908.353L514.008 908.207V896.7L480.51 896.871Z" fill="#263238"/>
<path d="M372.688 898.744H400.135C409.917 858.678 429.569 729.846 432.704 665.964C448.272 577.343 455.713 459.482 455.713 459.482H368.735C368.735 459.482 360.631 539.102 372.533 665.356C370.214 775.433 372.047 864.492 372.688 898.744Z" fill="#263238"/>
<path d="M370.281 896.822L370.215 908.232H401.945L403.624 896.846L370.281 896.822Z" fill="#263238"/>
<path d="M517.917 473.932C457.546 499.474 359.307 481.084 359.307 481.084C360.477 448.584 361.515 384.216 361.096 330.722C361.096 329.481 361.096 328.289 361.096 327C361.096 319.41 360.919 312.064 360.786 305.106C360.786 304.255 360.786 303.404 360.786 302.674C360.389 288.905 359.969 276.742 359.395 267.011C358.291 248.791 367.278 231.835 383.685 228.794C388.653 227.87 394.019 227.067 399.605 226.362L403.646 225.9C419.604 224.178 435.643 223.536 451.673 223.978H453.991H455.228H457.237C464.149 224.294 470.707 224.854 476.581 225.705C489.829 227.602 501.775 239.206 501.996 254.045C502.195 267.644 503.409 296.349 505.154 328.727C505.816 340.89 506.567 353.808 507.362 366.506C510.542 416.74 514.516 465.198 517.917 473.932Z" fill="#008CFF"/>
<path d="M363.988 414.454C363.894 414.428 363.795 414.428 363.701 414.454L354.868 432.528L353.19 431.482L352.771 431.19L352.506 430.996L352.02 430.606L351.004 429.828L350.187 429.147C349.061 428.222 348.156 427.395 347.184 426.52C345.351 424.792 343.607 423.09 341.907 421.362C338.528 417.932 335.282 414.502 332.058 411.024C325.699 403.993 319.538 396.841 313.554 389.495C307.57 382.148 301.719 374.631 295.889 366.579C294.454 364.56 292.996 362.468 291.473 360.23C290.744 359.062 290.038 357.992 289.265 356.654C288.492 355.316 287.763 354.003 286.902 352.227L286.218 350.621L285.864 349.818L285.378 348.334L284.959 346.778C284.726 345.938 284.57 345.074 284.495 344.199C284.328 342.582 284.328 340.95 284.495 339.334L284.628 338.142C284.628 337.777 284.76 337.315 284.804 337.169L285.136 335.879C285.387 335.003 285.682 334.142 286.019 333.301L286.527 332.084L286.814 331.476L286.924 331.257L287.874 329.53C288.624 328.217 288.978 327.706 289.463 326.952C291.34 324.105 292.842 322.086 294.41 320.019C300.57 312.015 306.665 304.936 312.825 297.76C318.986 290.584 325.213 283.699 331.55 276.912C344.159 263.216 356.966 249.91 370.325 237.09L395.586 267.692C383.022 280.95 370.06 293.916 357.143 306.761L337.844 326.027C331.661 332.133 325.434 338.434 319.847 344.467C320.289 345.342 320.753 346.218 321.238 347.094C325.522 354.878 330.38 362.784 335.15 370.666C339.919 378.548 344.91 386.405 349.9 394.117C352.373 398.009 354.868 401.853 357.408 405.575C358.666 407.448 359.947 409.224 361.183 410.951L362.928 413.383L363.612 414.283L363.988 414.454Z" fill="#008CFF"/>
<path d="M433.037 348.967C432.964 348.961 432.893 348.939 432.828 348.903C432.764 348.866 432.706 348.816 432.659 348.755C432.611 348.694 432.576 348.623 432.553 348.547C432.531 348.471 432.523 348.39 432.529 348.31C435.753 298.174 424.491 245.896 424.381 245.385C424.346 245.227 424.369 245.06 424.446 244.921C424.522 244.782 424.646 244.682 424.789 244.643C424.933 244.605 425.084 244.63 425.211 244.715C425.337 244.799 425.428 244.935 425.463 245.093C425.573 245.629 436.879 298.052 433.633 348.408C433.627 348.488 433.607 348.566 433.574 348.637C433.541 348.708 433.496 348.772 433.44 348.824C433.385 348.876 433.321 348.915 433.251 348.94C433.182 348.965 433.109 348.974 433.037 348.967Z" fill="white"/>
<path d="M459.025 347.823C458.882 347.811 458.75 347.738 458.655 347.62C458.56 347.502 458.511 347.348 458.517 347.191C461.741 297.03 450.501 244.777 450.391 244.266C450.361 244.185 450.347 244.098 450.35 244.011C450.353 243.924 450.373 243.838 450.409 243.761C450.445 243.683 450.495 243.614 450.557 243.56C450.619 243.505 450.691 243.466 450.768 243.445C450.845 243.424 450.925 243.421 451.003 243.437C451.08 243.453 451.154 243.487 451.219 243.537C451.284 243.588 451.338 243.653 451.378 243.728C451.418 243.803 451.443 243.887 451.451 243.974C451.561 244.485 462.867 296.933 459.621 347.264C459.615 347.344 459.596 347.422 459.563 347.493C459.529 347.565 459.484 347.628 459.429 347.68C459.373 347.732 459.309 347.772 459.24 347.796C459.17 347.821 459.097 347.83 459.025 347.823Z" fill="white"/>
<path opacity="0.2" d="M507.339 366.749C484.648 330.242 467.806 289.719 457.546 246.942L505.153 328.971C505.771 341.231 506.522 354.051 507.339 366.749Z" fill="black"/>
<path opacity="0.2" d="M391.303 398.52C391.303 398.52 395.587 430.436 394.063 448.803C394.063 448.803 441.626 457.025 491.684 444.813C493.927 428.278 493.017 411.41 489.013 395.284C459.6 393.655 426.633 395.163 391.303 398.52Z" fill="black"/>
<path d="M463.177 122.391C458.532 120.519 453.587 119.717 448.65 120.035C443.712 120.353 438.886 121.784 434.471 124.239C428.664 127.572 423.629 132.656 423.762 140.295C424.049 158.126 428.553 187.926 428.553 187.926L483.16 160.729C483.16 160.729 487.135 145.817 480.753 136.403C476.373 129.817 470.225 124.915 463.177 122.391Z" fill="#263238"/>
<path d="M423.939 158.953C423.939 158.953 425.131 153.796 419.699 144.163C414.267 134.53 420.229 128.57 424.38 129.932C424.38 129.932 422.172 124.021 425.838 122.002C429.503 119.982 431.27 122.269 431.27 122.269C435.857 118.624 441.066 116.038 446.583 114.666C452.1 113.295 457.813 113.167 463.376 114.29C478.281 117.55 489.277 106.092 494.82 110.544C500.362 114.996 490.404 119.18 490.404 119.18C490.404 119.18 499.236 124.604 497.955 129.664C496.675 134.724 488.372 135.113 488.372 135.113C488.372 135.113 496.873 141.341 493.407 145.477C489.94 149.612 479.12 144.601 479.12 144.601C479.12 144.601 436.128 144.358 423.939 158.953Z" fill="#263238"/>
<path d="M452.357 210.087C452.349 210.152 452.349 210.217 452.357 210.282L448.913 220.159C448.523 222.176 448.294 224.227 448.228 226.289C448.187 227.914 448.254 229.54 448.427 231.154C450.149 234.463 450.436 241.517 443.238 240.69C434.14 239.668 418.727 223.954 418.551 219.453C424.115 206.293 429.393 189.799 429.989 176.639L439.153 190.237L452.357 210.087Z" fill="#FFC3BD"/>
<g opacity="0.2">
<path d="M452.269 210.307L448.825 220.185C443.415 216.633 438.071 209.772 437.386 202.936C436.901 198.071 439.308 193.74 441.096 193.716L452.269 210.307Z" fill="black"/>
</g>
<path d="M477.419 191.818C476.669 193.959 475.852 196.051 474.99 198.119C467.394 216.364 446.02 215.561 434.206 200.017C433.126 198.606 432.151 197.101 431.292 195.516C424.115 182.38 427.14 173.282 430.497 152.239C431.246 147.353 433.111 142.758 435.918 138.886C438.725 135.014 442.38 131.992 446.539 130.106C450.698 128.22 455.225 127.532 459.693 128.106C464.16 128.68 468.422 130.497 472.076 133.386C487.091 145.379 484.949 170.387 477.419 191.818Z" fill="#FFC3BD"/>
<path d="M460.306 189.824C459.968 190.345 459.504 190.751 458.967 190.996C458.43 191.242 457.842 191.317 457.268 191.213C456.695 191.109 456.159 190.83 455.722 190.408C455.285 189.986 454.963 189.438 454.795 188.825C454.626 188.212 454.616 187.56 454.766 186.941C454.916 186.323 455.221 185.763 455.645 185.325C456.069 184.887 456.596 184.589 457.166 184.464C457.736 184.339 458.327 184.392 458.871 184.618C459.675 185.112 460.275 185.93 460.543 186.902C460.81 187.873 460.725 188.921 460.306 189.824Z" fill="white"/>
<path d="M446.505 148.931C451.473 148.177 448.095 142.12 449.155 138.714C452.644 127.694 479.87 135.235 483.006 152.118C483.006 152.118 482.255 139.249 473.753 131.367C465.252 123.486 446.969 119.91 438.556 128.935C430.143 137.96 430.099 154.088 430.099 154.088C429.984 155.85 430.49 157.593 431.512 158.953C432.417 159.927 434.007 164.378 436.657 165.546C438.865 166.568 440.632 166.154 441.471 162.554C442.31 158.953 443.061 149.442 446.505 148.931Z" fill="#263238"/>
<path d="M419.323 163.892C419.437 166.549 420.027 169.154 421.057 171.559C422.088 173.964 423.54 176.12 425.329 177.905C430.165 182.649 435.398 178.659 436.37 171.994C437.297 166.009 435.906 156.351 429.922 154.161C423.938 151.972 418.881 157.324 419.257 163.892" fill="#FFC3BD"/>
<path d="M458.341 165.084C457.987 166.738 458.495 168.271 459.467 168.514C460.438 168.757 461.498 167.662 461.852 166.081C462.205 164.5 461.719 162.894 460.748 162.651C459.776 162.408 458.694 163.502 458.341 165.084Z" fill="#263238"/>
<path d="M474.637 169.171C474.284 170.801 474.792 172.333 475.763 172.601C476.735 172.868 477.795 171.725 478.148 170.168C478.502 168.611 478.016 167.005 477.044 166.762C476.073 166.519 475.013 167.614 474.637 169.195" fill="#263238"/>
<path d="M480.466 164.256C480.334 164.22 480.212 164.147 480.112 164.045C480.011 163.943 479.936 163.815 479.892 163.673C479.774 163.088 479.551 162.535 479.236 162.046C478.922 161.557 478.521 161.142 478.059 160.826C477.07 160.326 475.953 160.222 474.902 160.534C474.806 160.572 474.705 160.586 474.604 160.578C474.503 160.57 474.404 160.538 474.315 160.485C474.226 160.433 474.147 160.36 474.085 160.272C474.022 160.184 473.977 160.083 473.952 159.975C473.922 159.869 473.911 159.758 473.92 159.648C473.929 159.538 473.958 159.431 474.006 159.334C474.053 159.236 474.117 159.15 474.196 159.08C474.274 159.011 474.364 158.959 474.46 158.929C475.926 158.441 477.506 158.589 478.876 159.342C479.526 159.756 480.091 160.313 480.536 160.978C480.98 161.644 481.295 162.404 481.46 163.21C481.49 163.317 481.5 163.43 481.489 163.541C481.479 163.653 481.448 163.761 481.398 163.859C481.349 163.956 481.282 164.042 481.201 164.111C481.121 164.179 481.028 164.229 480.93 164.256C480.857 164.294 480.778 164.313 480.698 164.313C480.618 164.313 480.539 164.294 480.466 164.256Z" fill="#263238"/>
<path d="M455.183 157.543C455.054 157.522 454.932 157.463 454.83 157.372C454.662 157.216 454.556 156.994 454.535 156.752C454.515 156.511 454.581 156.271 454.719 156.083C455.792 154.735 457.278 153.869 458.893 153.65C459.701 153.604 460.51 153.74 461.269 154.05C462.028 154.359 462.722 154.836 463.309 155.45C463.463 155.627 463.549 155.862 463.549 156.107C463.549 156.352 463.463 156.587 463.309 156.764C463.152 156.932 462.942 157.026 462.724 157.026C462.505 157.026 462.295 156.932 462.139 156.764C461.717 156.316 461.219 155.965 460.673 155.731C460.127 155.497 459.545 155.385 458.959 155.402C457.785 155.573 456.708 156.214 455.934 157.202C455.845 157.324 455.73 157.419 455.598 157.479C455.467 157.539 455.324 157.56 455.183 157.543Z" fill="#263238"/>
<path d="M468.587 166.3C469.042 170.639 469.991 174.898 471.413 178.975C473.489 184.181 465.341 182.235 465.341 182.235L468.587 166.3Z" fill="#ED847E"/>
<path opacity="0.2" d="M389.403 275.209L361.051 326.879C361.051 319.289 360.874 311.942 360.741 304.985C360.741 304.133 360.741 303.282 360.741 302.552L389.403 275.209Z" fill="black"/>
<path d="M526.351 352.592C522.001 354.713 517.098 355.014 512.562 353.438C508.025 351.861 504.166 348.516 501.708 344.029L500.737 342.229L498.816 338.604C498.484 338.02 498.175 337.412 497.866 336.804C496.828 334.858 495.813 332.887 494.775 330.917L491.352 324.324L487.952 317.732C486.803 315.543 485.744 313.329 484.573 311.139C483.403 308.95 482.365 306.712 481.217 304.498L480.819 303.696L474.548 291.192C470.132 282.288 465.716 273.361 461.565 264.433C457.413 255.505 453.13 246.383 449.177 237.163L466.555 224.635C472.627 232.322 478.457 240.204 484.22 248.11L486.141 250.761L499.39 243.123C502.702 249.545 505.838 256.064 508.929 262.584C512.02 269.103 515.045 275.72 518.004 282.337C520.963 288.954 523.922 295.595 526.837 302.285C529.752 308.974 532.556 315.664 535.338 322.378L536.111 324.276C537.159 326.841 537.738 329.608 537.815 332.42C537.891 335.232 537.464 338.032 536.558 340.662C535.651 343.292 534.283 345.699 532.532 347.746C530.781 349.793 528.68 351.439 526.351 352.592Z" fill="#008CFF"/>
<path d="M491.242 324.325L490.668 322.963C488.592 319.022 486.561 315.056 484.573 311.066C485.677 313.256 486.781 315.47 487.952 317.659L491.242 324.325Z" fill="#008CFF"/>
<path d="M466.378 229.5C465.958 233.197 463.53 238.939 458.65 238.744C455.62 238.58 452.635 237.865 449.817 236.627C446.085 235.581 439.086 232.979 436.679 227.894C433.3 220.791 438.578 209.65 438.578 209.65C433.102 203.933 426.632 194.105 431.158 196.343C435.685 198.581 453.438 212.252 459.864 210.696C465.782 209.26 467.857 203.617 470.066 204.76C472.274 205.903 467.857 211.133 465.517 216.388C466.387 220.688 466.677 225.106 466.378 229.5Z" fill="#FFC3BD"/>
<g opacity="0.2">
<path d="M448.25 236.725H448.007C447.565 236.482 436.834 230.935 434.891 224.902C433.168 219.502 436.878 211.742 437.894 209.796C434.801 206.983 432.081 203.708 429.812 200.065C429.039 198.314 428.862 197.049 429.282 196.221C429.378 196.022 429.516 195.851 429.686 195.724C429.855 195.597 430.05 195.517 430.254 195.492C432.462 195.492 434.846 197.389 438.048 199.992C441.917 203.319 446.127 206.136 450.59 208.385C460.24 213.055 461.984 210.209 463.133 208.385L463.552 207.679C464.833 205.66 466.975 202.279 470.596 203.909C470.662 203.938 470.722 203.981 470.773 204.037C470.823 204.092 470.863 204.158 470.89 204.231C470.916 204.303 470.93 204.381 470.929 204.46C470.927 204.538 470.912 204.615 470.883 204.687C470.859 204.762 470.821 204.831 470.772 204.889C470.722 204.947 470.663 204.993 470.597 205.025C470.53 205.057 470.459 205.074 470.387 205.074C470.314 205.075 470.243 205.059 470.176 205.028C467.571 203.884 466.047 205.855 464.457 208.385L464.038 209.066C462.316 211.863 459.82 214.223 450.149 209.552C445.611 207.269 441.335 204.403 437.408 201.014C434.471 198.581 432.175 196.781 430.32 196.732C430.32 196.732 430.32 196.732 430.32 196.903C430.32 197.073 430.077 197.73 430.894 199.579C432.395 202.984 438.976 209.309 439.042 209.309C439.129 209.416 439.177 209.555 439.177 209.698C439.177 209.842 439.129 209.981 439.042 210.088C439.042 210.088 434.14 219.04 435.906 224.683C437.673 230.327 448.36 235.752 448.449 235.801C448.566 235.856 448.662 235.954 448.722 236.078C448.781 236.203 448.799 236.346 448.773 236.484C448.747 236.622 448.678 236.745 448.579 236.833C448.479 236.922 448.355 236.969 448.228 236.968L448.25 236.725Z" fill="black"/>
</g>
<path opacity="0.2" d="M474.284 234.365L521.582 313.645C521.582 313.645 516.062 287.081 474.284 234.365Z" fill="black"/>
<path d="M360.764 414.867C360.764 414.867 379.798 421.314 381.321 425.401C382.845 429.487 376.596 428.441 376.596 428.441C376.596 428.441 383.375 429.998 383.22 432.893C382.999 436.347 376.485 435.204 376.485 435.204C376.485 435.204 381.984 436.712 381.653 439.242C381.321 441.772 373.858 441.115 373.858 441.115C373.858 441.115 377.567 442.891 376.287 444.472C375.006 446.054 361.183 444.959 356.811 441.529C352.439 438.099 355.265 418.905 356.546 414.77C357.827 410.634 355.575 406.256 360.962 401.463L360.786 414.916L360.764 414.867Z" fill="#FFC3BD"/>
<path opacity="0.2" d="M376.551 428.758L364.804 425.449C364.73 425.427 364.666 425.374 364.625 425.302C364.585 425.23 364.57 425.144 364.583 425.06C364.612 424.979 364.665 424.911 364.733 424.867C364.801 424.823 364.881 424.805 364.959 424.817L376.662 428.125C376.7 428.134 376.736 428.151 376.768 428.176C376.8 428.2 376.828 428.231 376.848 428.268C376.869 428.304 376.883 428.345 376.889 428.387C376.894 428.43 376.892 428.473 376.883 428.515C376.867 428.595 376.823 428.665 376.762 428.71C376.7 428.755 376.625 428.773 376.551 428.758Z" fill="black"/>
<path opacity="0.2" d="M376.088 435.472L364.628 433.161C364.588 433.158 364.55 433.147 364.515 433.126C364.481 433.105 364.451 433.077 364.428 433.042C364.404 433.007 364.388 432.967 364.381 432.924C364.374 432.881 364.375 432.838 364.385 432.796C364.377 432.737 364.384 432.676 364.404 432.621C364.424 432.566 364.457 432.517 364.499 432.48C364.542 432.443 364.592 432.419 364.646 432.411C364.699 432.402 364.754 432.409 364.804 432.431L376.287 434.864C376.363 434.864 376.436 434.897 376.49 434.956C376.543 435.015 376.574 435.096 376.574 435.18C376.574 435.264 376.543 435.344 376.49 435.403C376.436 435.463 376.363 435.496 376.287 435.496L376.088 435.472Z" fill="black"/>
<path opacity="0.2" d="M373.416 441.358L364.827 439.899C364.789 439.893 364.752 439.879 364.719 439.857C364.687 439.835 364.658 439.807 364.635 439.773C364.613 439.739 364.597 439.7 364.588 439.659C364.579 439.618 364.577 439.575 364.584 439.534C364.6 439.448 364.646 439.372 364.711 439.322C364.777 439.272 364.858 439.252 364.937 439.266L373.505 440.726C373.542 440.732 373.579 440.746 373.612 440.768C373.645 440.789 373.673 440.818 373.696 440.852C373.718 440.886 373.735 440.925 373.743 440.966C373.752 441.007 373.754 441.049 373.747 441.091C373.745 441.134 373.735 441.176 373.716 441.215C373.697 441.253 373.671 441.286 373.639 441.311C373.608 441.337 373.571 441.354 373.533 441.363C373.494 441.371 373.454 441.369 373.416 441.358Z" fill="black"/>
</svg>
