<svg width="838" height="940" viewBox="0 0 838 940" fill="none" xmlns="http://www.w3.org/2000/svg">
<path d="M384.825 937.759H366.52V58.9876C366.52 56.3117 367.483 53.7455 369.197 51.8533C370.912 49.9612 373.238 48.8982 375.663 48.8982C376.865 48.8954 378.056 49.1544 379.168 49.6601C380.279 50.1659 381.289 50.9087 382.14 51.8458C382.991 52.783 383.667 53.8962 384.127 55.1217C384.588 56.3472 384.825 57.6609 384.825 58.9876V937.759Z" fill="#008CFF" stroke="#263238" stroke-width="1.11125" stroke-linecap="round" stroke-linejoin="round"/>
<path d="M366.002 165.952H205.584V228.286H366.002V165.952Z" fill="white" stroke="#263238" stroke-width="1.11125" stroke-linecap="round" stroke-linejoin="round"/>
<path d="M545.549 99.1335H385.131V161.468H545.549V99.1335Z" fill="white" stroke="#263238" stroke-width="1.11125" stroke-linecap="round" stroke-linejoin="round"/>
<path d="M385.131 270.907L474.703 283.471V196.009L385.131 208.573V270.907Z" fill="white" stroke="#263238" stroke-width="1.11125" stroke-linecap="round" stroke-linejoin="round"/>
<path d="M456.648 241.4L436.885 217.351V227.842L395.597 229.64V252.484L436.885 254.747V265.238L456.648 241.4Z" fill="black" stroke="#263238" stroke-width="1.11125" stroke-linecap="round" stroke-linejoin="round"/>
<path d="M521.091 125.764L490.614 106.346V114.849H410.242V136.678H490.614V145.202L521.091 125.764Z" fill="black" stroke="#263238" stroke-width="1.11125" stroke-linecap="round" stroke-linejoin="round"/>
<path d="M231.308 197.574L261.785 178.157V186.66H342.157V208.488H261.785V216.991L231.308 197.574Z" fill="black" stroke="#263238" stroke-width="1.11125" stroke-linecap="round" stroke-linejoin="round"/>
<path d="M624.886 228.498C661.599 228.498 691.361 195.656 691.361 155.143C691.361 114.631 661.599 81.7891 624.886 81.7891C588.173 81.7891 558.411 114.631 558.411 155.143C558.411 195.656 588.173 228.498 624.886 228.498Z" stroke="#263238" stroke-width="1.11125" stroke-linecap="round" stroke-linejoin="round"/>
<path d="M668.609 203.581C664.146 208.473 659.041 212.594 653.466 215.807" stroke="#263238" stroke-width="1.11125" stroke-linecap="round" stroke-linejoin="round"/>
<path d="M644.61 219.973C630.827 225.09 615.853 224.696 602.306 218.861C588.759 213.026 577.503 202.121 570.505 188.054C563.508 173.987 561.214 157.653 564.027 141.909C566.839 126.165 574.578 112.013 585.89 101.929C597.202 91.8442 611.366 86.4692 625.906 86.7437C640.446 87.0181 654.436 92.9246 665.429 103.43C676.421 113.936 683.717 128.371 686.04 144.212C688.363 160.053 685.565 176.291 678.135 190.086" stroke="#263238" stroke-width="1.11125" stroke-linecap="round" stroke-linejoin="round"/>
<path d="M624.887 160.558C627.597 160.558 629.794 158.134 629.794 155.143C629.794 152.153 627.597 149.729 624.887 149.729C622.176 149.729 619.979 152.153 619.979 155.143C619.979 158.134 622.176 160.558 624.887 160.558Z" fill="#263238" stroke="#263238" stroke-width="1.11125" stroke-linecap="round" stroke-linejoin="round"/>
<path d="M631.94 185.538L624.886 155.143L666.059 124.029" stroke="#263238" stroke-width="1.11125" stroke-linecap="round" stroke-linejoin="round"/>
<path d="M188.065 345.467V453.827H114.919" stroke="#263238" stroke-width="1.11125" stroke-linecap="round" stroke-linejoin="round"/>
<path d="M54.9038 436.821V315.897H188.065V335.906" stroke="#263238" stroke-width="1.11125" stroke-linecap="round" stroke-linejoin="round"/>
<path d="M104.415 453.827H54.9038V445.007" stroke="#263238" stroke-width="1.11125" stroke-linecap="round" stroke-linejoin="round"/>
<path d="M76.0082 349.845H63.0122V364.186H76.0082V349.845Z" stroke="#263238" stroke-width="1.11125" stroke-linecap="round" stroke-linejoin="round"/>
<path d="M93.3358 349.845H80.3398V364.186H93.3358V349.845Z" stroke="#263238" stroke-width="1.11125" stroke-linecap="round" stroke-linejoin="round"/>
<path d="M110.663 349.845H97.6675V364.186H110.663V349.845Z" stroke="#263238" stroke-width="1.11125" stroke-linecap="round" stroke-linejoin="round"/>
<path d="M127.992 349.845H114.996V364.186H127.992V349.845Z" stroke="#263238" stroke-width="1.11125" stroke-linecap="round" stroke-linejoin="round"/>
<path d="M145.32 349.845H132.324V364.186H145.32V349.845Z" stroke="#263238" stroke-width="1.11125" stroke-linecap="round" stroke-linejoin="round"/>
<path d="M162.648 349.845H149.652V364.186H162.648V349.845Z" stroke="#263238" stroke-width="1.11125" stroke-linecap="round" stroke-linejoin="round"/>
<path d="M179.975 349.845H166.979V364.186H179.975V349.845Z" stroke="#263238" stroke-width="1.11125" stroke-linecap="round" stroke-linejoin="round"/>
<path d="M76.0082 372.478H63.0122V386.819H76.0082V372.478Z" stroke="#263238" stroke-width="1.11125" stroke-linecap="round" stroke-linejoin="round"/>
<path d="M93.3358 372.478H80.3398V386.819H93.3358V372.478Z" stroke="#263238" stroke-width="1.11125" stroke-linecap="round" stroke-linejoin="round"/>
<path d="M110.663 372.478H97.6675V386.819H110.663V372.478Z" stroke="#263238" stroke-width="1.11125" stroke-linecap="round" stroke-linejoin="round"/>
<path d="M127.992 372.478H114.996V386.819H127.992V372.478Z" stroke="#263238" stroke-width="1.11125" stroke-linecap="round" stroke-linejoin="round"/>
<path d="M145.32 372.478H132.324V386.819H145.32V372.478Z" stroke="#263238" stroke-width="1.11125" stroke-linecap="round" stroke-linejoin="round"/>
<path d="M162.648 372.478H149.652V386.819H162.648V372.478Z" stroke="#263238" stroke-width="1.11125" stroke-linecap="round" stroke-linejoin="round"/>
<path d="M179.975 372.478H166.979V386.819H179.975V372.478Z" stroke="#263238" stroke-width="1.11125" stroke-linecap="round" stroke-linejoin="round"/>
<path d="M76.0082 395.11H63.0122V409.451H76.0082V395.11Z" stroke="#263238" stroke-width="1.11125" stroke-linecap="round" stroke-linejoin="round"/>
<path d="M93.3358 395.11H80.3398V409.451H93.3358V395.11Z" stroke="#263238" stroke-width="1.11125" stroke-linecap="round" stroke-linejoin="round"/>
<path d="M110.663 395.11H97.6675V409.451H110.663V395.11Z" stroke="#263238" stroke-width="1.11125" stroke-linecap="round" stroke-linejoin="round"/>
<path d="M127.992 395.11H114.996V409.451H127.992V395.11Z" stroke="#263238" stroke-width="1.11125" stroke-linecap="round" stroke-linejoin="round"/>
<path d="M145.32 395.11H132.324V409.451H145.32V395.11Z" stroke="#263238" stroke-width="1.11125" stroke-linecap="round" stroke-linejoin="round"/>
<path d="M162.648 395.11H149.652V409.451H162.648V395.11Z" stroke="#263238" stroke-width="1.11125" stroke-linecap="round" stroke-linejoin="round"/>
<path d="M179.975 395.11H166.979V409.451H179.975V395.11Z" stroke="#263238" stroke-width="1.11125" stroke-linecap="round" stroke-linejoin="round"/>
<path d="M76.0082 417.742H63.0122V432.083H76.0082V417.742Z" stroke="#263238" stroke-width="1.11125" stroke-linecap="round" stroke-linejoin="round"/>
<path d="M93.3358 417.742H80.3398V432.083H93.3358V417.742Z" stroke="#263238" stroke-width="1.11125" stroke-linecap="round" stroke-linejoin="round"/>
<path d="M110.663 417.742H97.6675V432.083H110.663V417.742Z" stroke="#263238" stroke-width="1.11125" stroke-linecap="round" stroke-linejoin="round"/>
<path d="M127.992 417.742H114.996V432.083H127.992V417.742Z" stroke="#263238" stroke-width="1.11125" stroke-linecap="round" stroke-linejoin="round"/>
<path d="M145.32 417.742H132.324V432.083H145.32V417.742Z" stroke="#263238" stroke-width="1.11125" stroke-linecap="round" stroke-linejoin="round"/>
<path d="M162.648 417.742H149.652V432.083H162.648V417.742Z" stroke="#263238" stroke-width="1.11125" stroke-linecap="round" stroke-linejoin="round"/>
<path d="M179.975 417.742H166.979V432.083H179.975V417.742Z" stroke="#263238" stroke-width="1.11125" stroke-linecap="round" stroke-linejoin="round"/>
<path d="M78.4614 325.648H72.7109V302.381H78.4614V325.648ZM101.463 302.381H95.7127V325.648H101.463V302.381ZM124.465 302.381H118.714V325.648H124.465V302.381ZM147.467 302.381H141.716V325.648H147.467V302.381ZM170.468 302.381H164.718V325.648H170.468V302.381Z" fill="#263238" stroke="#263238" stroke-width="1.11125" stroke-linecap="round" stroke-linejoin="round"/>
<path d="M121.493 546.557C111.446 546.552 101.623 549.836 93.2677 555.993C84.9119 562.149 78.3983 570.902 74.5508 581.144C70.7033 591.386 69.6946 602.657 71.6524 613.531C73.6102 624.406 78.4465 634.395 85.5496 642.236C92.6527 650.077 101.704 655.418 111.557 657.582C121.411 659.747 131.626 658.638 140.908 654.396C150.191 650.154 158.125 642.97 163.708 633.752C169.29 624.534 172.27 613.696 172.27 602.609C172.272 595.249 170.961 587.961 168.41 581.16C165.859 574.36 162.12 568.18 157.404 562.975C152.689 557.77 147.091 553.641 140.929 550.824C134.767 548.007 128.163 546.557 121.493 546.557ZM121.493 638.059C115.134 638.063 108.917 635.986 103.627 632.09C98.3383 628.194 94.2152 622.654 91.7799 616.172C89.3445 609.689 88.7063 602.555 89.946 595.673C91.1857 588.79 94.2476 582.468 98.7443 577.505C103.241 572.543 108.97 569.165 115.208 567.797C121.445 566.429 127.91 567.133 133.784 569.82C139.659 572.508 144.679 577.057 148.21 582.894C151.74 588.73 153.623 595.591 153.619 602.609C153.614 612.009 150.228 621.023 144.204 627.67C138.18 634.317 130.012 638.054 121.493 638.059Z" stroke="#263238" stroke-width="1.11125" stroke-linecap="round" stroke-linejoin="round"/>
<path d="M122.529 546.578V567.201C128.774 567.413 134.828 569.633 139.946 573.589C145.064 577.544 149.025 583.062 151.341 589.466C153.658 595.87 154.229 602.881 152.986 609.638C151.743 616.395 148.738 622.605 144.342 627.505L159.006 640.365C165.58 632.415 169.94 622.545 171.565 611.934C173.19 601.322 172.012 590.419 168.171 580.527C164.329 570.635 157.988 562.173 149.904 556.153C141.821 550.133 132.337 546.808 122.586 546.578H122.529Z" stroke="#263238" stroke-width="1.11125" stroke-linecap="round" stroke-linejoin="round"/>
<path d="M102.824 600.303H139.109" stroke="#263238" stroke-width="1.11125" stroke-linecap="round" stroke-linejoin="round"/>
<path d="M102.824 610.604H139.109" stroke="#263238" stroke-width="1.11125" stroke-linecap="round" stroke-linejoin="round"/>
<path d="M582.199 351.03H681.01" stroke="#263238" stroke-width="1.11125" stroke-linecap="round" stroke-linejoin="round"/>
<path d="M542.828 351.03H552.987" stroke="#263238" stroke-width="1.11125" stroke-linecap="round" stroke-linejoin="round"/>
<path d="M615.111 368.332H681.011" stroke="#263238" stroke-width="1.11125" stroke-linecap="round" stroke-linejoin="round"/>
<path d="M542.828 368.332H553.792" stroke="#263238" stroke-width="1.11125" stroke-linecap="round" stroke-linejoin="round"/>
<path d="M646.795 385.634H681.01" stroke="#263238" stroke-width="1.11125" stroke-linecap="round" stroke-linejoin="round"/>
<path d="M542.828 385.634H552.987" stroke="#263238" stroke-width="1.11125" stroke-linecap="round" stroke-linejoin="round"/>
<path d="M674.896 402.915H681.011" stroke="#263238" stroke-width="1.11125" stroke-linecap="round" stroke-linejoin="round"/>
<path d="M542.828 402.915H552.987" stroke="#263238" stroke-width="1.11125" stroke-linecap="round" stroke-linejoin="round"/>
<path d="M674.896 423.052H681.011" stroke="#263238" stroke-width="1.11125" stroke-linecap="round" stroke-linejoin="round"/>
<path d="M542.828 423.052H552.987" stroke="#263238" stroke-width="1.11125" stroke-linecap="round" stroke-linejoin="round"/>
<path d="M674.896 443.188H681.011" stroke="#263238" stroke-width="1.11125" stroke-linecap="round" stroke-linejoin="round"/>
<path d="M542.828 443.188H552.987" stroke="#263238" stroke-width="1.11125" stroke-linecap="round" stroke-linejoin="round"/>
<path d="M578.5 339.058H555.594V445.028H578.5V339.058Z" stroke="#263238" stroke-width="1.11125" stroke-linecap="round" stroke-linejoin="round"/>
<path d="M609.839 359.004H586.934V445.028H609.839V359.004Z" stroke="#263238" stroke-width="1.11125" stroke-linecap="round" stroke-linejoin="round"/>
<path d="M641.198 377.639H618.292V445.028H641.198V377.639Z" stroke="#263238" stroke-width="1.11125" stroke-linecap="round" stroke-linejoin="round"/>
<path d="M672.557 401.604H649.651V445.049H672.557V401.604Z" stroke="#263238" stroke-width="1.11125" stroke-linecap="round" stroke-linejoin="round"/>
<path d="M155.114 101.354C143.472 91.7495 128.921 87.4693 114.49 89.4046C100.06 91.3398 86.8613 99.3415 77.6422 111.744C68.4232 124.147 63.8936 139.995 64.9963 155.989C66.099 171.984 72.749 186.894 83.5623 197.615C94.3755 208.335 108.519 214.042 123.049 213.546C137.578 213.05 151.375 206.39 161.567 194.952C171.759 183.514 177.562 168.18 177.766 152.14C177.971 136.101 172.563 120.592 162.667 108.842" stroke="#263238" stroke-width="1.11125" stroke-linecap="round" stroke-linejoin="round"/>
<path d="M94.9841 179.616C101.611 187.118 110.602 191.517 120.09 191.898C129.578 192.279 138.835 188.614 145.939 181.663C153.043 174.712 157.449 165.01 158.242 154.569C159.035 144.129 156.154 133.752 150.198 125.594C144.241 117.435 135.666 112.121 126.253 110.754C116.839 109.387 107.311 112.073 99.6443 118.254C91.9779 124.434 86.7627 133.635 85.0811 143.947C83.3996 154.258 85.3809 164.888 90.6137 173.63" stroke="#263238" stroke-width="1.11125" stroke-linecap="round" stroke-linejoin="round"/>
<path d="M121.494 172.467C132.154 172.467 140.796 162.93 140.796 151.167C140.796 139.403 132.154 129.867 121.494 129.867C110.833 129.867 102.191 139.403 102.191 151.167C102.191 162.93 110.833 172.467 121.494 172.467Z" stroke="#263238" stroke-width="1.11125" stroke-linecap="round" stroke-linejoin="round"/>
<path d="M612.523 574.752C618.714 575.725 621.551 581.097 621.551 588.585V590.129H616.242V588.183C616.242 583.213 614.421 580.146 610.338 580.146C606.255 580.146 604.492 583.213 604.492 588.183C604.492 600.874 621.628 600.874 621.628 616.759C621.628 624.311 618.714 629.704 612.523 630.677V634.908H607.846V630.677C601.501 629.704 598.665 624.332 598.665 616.759V613.29H603.993V617.161C603.993 622.217 605.91 625.114 609.974 625.114C614.037 625.114 615.935 622.217 615.935 617.161C615.935 604.597 598.875 604.47 598.875 588.585C598.875 580.865 601.731 575.894 607.846 574.752V570.247H612.523V574.752Z" fill="#263238"/>
<path d="M628.797 650.222C632.388 648.511 635.769 646.308 638.86 643.665" stroke="#263238" stroke-width="1.11125" stroke-linecap="round" stroke-linejoin="round"/>
<path d="M593.566 554.044C582.451 558.628 573.317 567.677 567.994 579.379C562.671 591.08 561.551 604.569 564.861 617.143C568.17 629.717 575.663 640.446 585.838 647.18C596.014 653.915 608.12 656.157 619.73 653.458" stroke="#263238" stroke-width="1.11125" stroke-linecap="round" stroke-linejoin="round"/>
<path d="M644.783 637.678C651.615 629.445 655.86 619 656.887 607.894C657.914 596.788 655.669 585.613 650.485 576.026C645.3 566.439 637.454 558.953 628.108 554.677C618.763 550.401 608.418 549.563 598.607 552.289" stroke="#263238" stroke-width="1.11125" stroke-linecap="round" stroke-linejoin="round"/>
<path d="M636.332 633.779C651.95 617.814 652.883 590.902 638.416 573.668C623.948 556.434 599.559 555.404 583.942 571.369C568.324 587.333 567.391 614.246 581.858 631.48C596.326 648.714 620.715 649.743 636.332 633.779Z" stroke="#263238" stroke-width="1.11125" stroke-linecap="round" stroke-linejoin="round"/>
<path d="M422.97 414.802L424.331 414.633C430.081 413.851 452.623 410.509 465.523 404.882C480.397 398.389 514.306 401.815 514.306 401.815L529.18 413.66L512.235 425.886C512.235 425.886 488.352 417.087 471.752 417.848C455.153 418.61 447.198 423.961 436.809 423.2C426.42 422.438 413.635 414.739 413.635 414.739L422.97 414.802Z" fill="#263238" stroke="#263238" stroke-width="1.11125" stroke-linecap="round" stroke-linejoin="round"/>
<path d="M359.35 377.66V402.217H396.038V373.789L359.35 377.66Z" fill="white" stroke="#263238" stroke-width="1.11125" stroke-linecap="round" stroke-linejoin="round"/>
<path d="M349.326 353.822C349.326 353.822 340.642 347.476 343.575 358.602C346.508 369.728 349.326 374.064 353.715 373.535C358.105 373.007 360.481 371.42 359.025 367.19C357.568 362.96 349.326 353.822 349.326 353.822Z" fill="white" stroke="#263238" stroke-width="1.11125" stroke-linecap="round" stroke-linejoin="round"/>
<path d="M407.385 353.822C407.385 353.822 416.069 347.476 413.136 358.602C410.203 369.728 407.385 374.064 402.996 373.535C398.606 373.007 396.249 371.42 397.686 367.19C399.124 362.96 407.385 353.822 407.385 353.822Z" fill="white" stroke="#263238" stroke-width="1.11125" stroke-linecap="round" stroke-linejoin="round"/>
<path d="M368.168 302.677C368.168 302.677 353.677 307.986 348.846 322.919C344.016 337.852 348.367 355.937 350.763 363.404C353.159 370.87 364.775 385.253 364.775 385.253H390.844C397.032 378.462 402.098 370.531 405.814 361.817C411.123 348.492 411.123 329.836 411.123 329.836C411.123 329.836 415.455 331.443 415.455 325.034C415.455 318.625 402.038 306.4 402.038 306.4C402.038 306.4 408.325 303.735 403.955 300.054C399.584 296.374 384.154 297.939 384.154 297.939C384.154 297.939 382.16 286.707 368.168 302.677Z" fill="#263238" stroke="#263238" stroke-width="1.11125" stroke-linecap="round" stroke-linejoin="round"/>
<path d="M425.288 914.788L429.256 917.516C431.782 917.536 434.227 918.498 436.195 920.245C438.667 922.995 437.747 936.574 437.747 936.574C437.747 936.574 435.831 938.182 426.342 938.182C416.854 938.182 396.133 940.72 394.217 936.891C392.3 933.063 394.562 916.966 394.562 916.966L425.288 914.788Z" fill="#858585" stroke="#263238" stroke-width="1.11125" stroke-linecap="round" stroke-linejoin="round"/>
<path d="M316.721 570.712C316.721 570.712 313.712 594.783 313.712 599.753C313.712 604.724 312.715 647.345 312.715 647.345C312.715 647.345 313.213 759.449 313.213 761.564C313.213 763.68 304.779 794.392 307.769 815.184C310.76 835.976 316.683 915.824 316.683 915.824C316.683 915.824 314.766 933.338 316.184 934.967C317.603 936.595 336.023 938.795 339.991 936.616C343.959 934.438 341.467 913.096 341.467 913.096C342.844 907.93 343.681 902.607 343.959 897.232V879.718C343.959 874.261 346.431 825.57 348.904 806.427C351.377 787.285 352.872 761.564 352.872 761.564L363.28 643.411L371.216 642.861C371.216 642.861 381.126 769.771 381.624 779.078C382.122 788.385 380.167 807.041 384.634 828.341C389.1 849.64 391.572 907.66 391.572 907.66C391.572 907.66 390.576 913.138 391.572 915.317C392.569 917.495 395.042 924.073 395.042 924.073C398.504 924.424 401.988 924.424 405.45 924.073C411.017 923.773 416.458 922.142 421.398 919.293C423.179 917.706 424.452 915.531 425.032 913.088C425.611 910.644 425.466 908.06 424.618 905.714C421.647 897.697 420.325 896.174 420.325 896.174C420.325 896.174 424.791 827.262 424.791 810.298C424.791 793.334 422.318 772.563 422.318 770.913C422.318 769.264 425.289 646.118 425.289 633.617C425.289 621.117 424.292 587.084 419.328 572.277C414.363 557.471 334.988 561.342 327.129 561.892C324.811 562.109 322.598 563.055 320.753 564.618C318.908 566.182 317.509 568.297 316.721 570.712Z" fill="#263238" stroke="#263238" stroke-width="1.11125" stroke-linecap="round" stroke-linejoin="round"/>
<path d="M345.971 642.628L388.601 640.449" stroke="#757575" stroke-width="1.11125" stroke-linecap="round" stroke-linejoin="round"/>
<path d="M370.756 401.138L343.92 408.245C343.92 408.245 305.239 429.038 296.824 434.495C288.409 439.952 255.172 513.814 256.667 517.642C258.162 521.471 264.603 526.399 271.043 527.499C277.484 528.599 310.28 487.649 310.28 487.649C310.28 487.649 319.692 539.069 319.692 541.248C319.692 543.426 314.248 569.697 316.721 574.075C319.193 578.454 414.382 574.075 414.382 574.075C414.382 574.075 421.321 574.625 422.318 567.518C423.314 560.411 420.401 539.619 420.401 539.619L431.308 476.714C431.308 476.714 452.143 511.572 456.82 517.177C464.928 526.928 475.011 522.846 480.378 515.548C485.074 509.203 480.876 496.935 479.4 493.106C477.924 489.278 451.549 424.194 443.633 421.381C435.716 418.567 402.479 405.517 402.479 405.517L370.756 401.138Z" fill="white" stroke="#263238" stroke-width="1.11125" stroke-linecap="round" stroke-linejoin="round"/>
<path d="M343.997 408.245C343.997 408.245 376.755 407.505 382.199 407.505C387.642 407.505 407.635 407.272 407.635 407.272L402.593 395.427C394.002 393.104 385.178 391.996 376.333 392.128C366.859 392.107 357.458 393.963 348.578 397.606L343.997 408.245Z" fill="white" stroke="#263238" stroke-width="1.11125" stroke-linecap="round" stroke-linejoin="round"/>
<path d="M300.198 458.713L310.28 487.564L292.933 468.422" stroke="#263238" stroke-width="1.11125" stroke-linecap="round" stroke-linejoin="round"/>
<path d="M296.901 449.259L298.089 452.707" stroke="#263238" stroke-width="1.11125" stroke-linecap="round" stroke-linejoin="round"/>
<path d="M352.68 536.404C351.028 537.938 349.286 539.351 347.466 540.634" stroke="#263238" stroke-width="1.11125" stroke-linecap="round" stroke-linejoin="round"/>
<path d="M398.051 453.637C398.051 453.637 379.937 508.314 355.67 533.527" stroke="#263238" stroke-width="1.11125" stroke-linecap="round" stroke-linejoin="round"/>
<path d="M442.636 445.43L431.23 476.629L449.574 454.737" stroke="#263238" stroke-width="1.11125" stroke-linecap="round" stroke-linejoin="round"/>
<path d="M252.374 531.327C255.198 539.969 260.182 547.552 266.75 553.198C277.656 562.505 307.003 593.133 307.003 593.133C306.701 594.759 306.701 596.435 307.003 598.061C307.501 600.79 315.437 607.897 315.437 607.897V602.44L317.353 598.061L319.27 592.583C321.482 591.637 323.639 590.542 325.73 589.304C326.687 588.555 327.523 587.632 328.203 586.576C331.148 587.161 334.126 587.522 337.116 587.655C340.585 587.655 345.55 583.826 342.579 582.747C339.608 581.669 336.636 582.747 332.669 580.632C328.701 578.517 326.707 576.254 322.74 576.254H312.331L284.959 526.949L252.374 531.327Z" fill="white" stroke="#263238" stroke-width="1.11125" stroke-linecap="round" stroke-linejoin="round"/>
<path d="M264.008 497.696C264.008 497.696 258.258 499.6 256.744 501.229C255.229 502.857 247.811 515.464 249.306 522.021C250.801 528.578 252.776 537.885 265.657 540.613C278.538 543.342 285.496 537.335 286.492 535.706C287.489 534.077 289.924 514.702 287.93 514.702C285.937 514.702 280.531 522.021 280.531 522.021C280.531 522.021 265.772 518.34 262.801 515.675C259.83 513.01 264.008 497.696 264.008 497.696Z" fill="white" stroke="#263238" stroke-width="1.11125" stroke-linecap="round" stroke-linejoin="round"/>
<path d="M491.438 531.327C488.614 539.969 483.629 547.552 477.062 553.198C466.155 562.505 436.809 593.133 436.809 593.133C437.111 594.759 437.111 596.435 436.809 598.061C436.311 600.79 425.404 609.208 425.404 609.208V601.234L424.637 596.2L424.427 592.583C422.215 591.637 420.057 590.542 417.967 589.304C417.009 588.555 416.173 587.633 415.494 586.576C412.549 587.161 409.571 587.522 406.581 587.655C403.112 587.655 398.147 583.826 401.118 582.747C404.089 581.669 407.06 582.747 411.028 580.632C414.996 578.517 416.989 576.254 420.957 576.254H431.365L458.622 527.034L491.438 531.327Z" fill="white" stroke="#263238" stroke-width="1.11125" stroke-linecap="round" stroke-linejoin="round"/>
<path d="M481.777 500.34C481.777 500.34 485.496 499.557 486.972 501.186C488.448 502.815 495.904 515.421 494.409 521.978C492.914 528.535 490.939 537.842 478.058 540.571C465.178 543.299 458.22 537.292 457.223 535.664C456.226 534.035 455.44 515.4 456.744 517.05C458.583 519.134 460.77 520.808 463.184 521.978C463.184 521.978 478.519 521.111 480.953 511.529C481.621 507.848 481.898 504.092 481.777 500.34Z" fill="white" stroke="#263238" stroke-width="1.11125" stroke-linecap="round" stroke-linejoin="round"/>
<path d="M340.029 936.659C343.154 934.924 342.272 921.281 341.754 915.613C338.23 917.439 334.464 918.631 330.598 919.145C325.767 919.876 320.857 918.716 316.721 915.867C316.721 915.867 315.13 934.797 316.472 936.574C317.813 938.351 336.061 938.837 340.029 936.659Z" fill="#858585" stroke="#263238" stroke-width="1.11125" stroke-linecap="round" stroke-linejoin="round"/>
<path d="M681.739 938.88C681.536 938.88 681.341 938.79 681.197 938.632C681.053 938.473 680.972 938.258 680.972 938.033V828.933C680.972 828.708 681.053 828.493 681.197 828.334C681.341 828.176 681.536 828.087 681.739 828.087C681.942 828.087 682.137 828.176 682.281 828.334C682.425 828.493 682.506 828.708 682.506 828.933V938.033C682.506 938.258 682.425 938.473 682.281 938.632C682.137 938.79 681.942 938.88 681.739 938.88Z" fill="#263238"/>
<path d="M680.972 928.198C677.769 923.279 673.725 919.097 669.069 915.888C662.379 911.784 651.243 911.784 651.243 911.784C651.243 911.784 657.185 935.58 680.972 928.198Z" fill="#263238"/>
<path d="M681.739 928.198C684.941 923.284 688.977 919.103 693.624 915.888C700.313 911.784 711.469 911.784 711.469 911.784C711.469 911.784 705.508 935.58 681.739 928.198Z" fill="#263238"/>
<path d="M680.972 898.67C677.769 893.751 673.725 889.569 669.069 886.36C662.379 882.256 651.243 882.256 651.243 882.256C651.243 882.256 657.185 906.052 680.972 898.67Z" fill="#263238"/>
<path d="M681.739 898.67C684.941 893.756 688.977 889.575 693.624 886.36C700.313 882.256 711.469 882.256 711.469 882.256C711.469 882.256 705.508 906.052 681.739 898.67Z" fill="#263238"/>
<path d="M680.972 869.121C677.77 864.207 673.726 860.032 669.069 856.832C662.379 852.729 651.243 852.729 651.243 852.729C651.243 852.729 657.185 876.503 680.972 869.121Z" fill="#263238"/>
<path d="M681.739 869.121C684.939 864.211 688.976 860.037 693.624 856.832C700.313 852.729 711.469 852.729 711.469 852.729C711.469 852.729 705.508 876.503 681.739 869.121Z" fill="#263238"/>
<path d="M680.972 839.593C677.769 834.674 673.725 830.492 669.069 827.283C662.379 823.179 651.243 823.179 651.243 823.179C651.243 823.179 657.185 846.975 680.972 839.593Z" fill="#263238"/>
<path d="M681.739 839.593C684.941 834.679 688.977 830.498 693.624 827.283C700.313 823.179 711.469 823.179 711.469 823.179C711.469 823.179 705.508 846.975 681.739 839.593Z" fill="#263238"/>
<path d="M681.739 828.933C681.739 828.933 675.778 820.091 675.49 811.652C675.203 803.212 680.206 792.234 680.206 792.234C680.206 792.234 698.416 808.839 681.739 828.933Z" fill="#263238"/>
<path d="M26.5542 938.88C26.3356 938.88 26.126 938.784 25.9714 938.613C25.8168 938.443 25.73 938.211 25.73 937.97V820.028C25.73 819.787 25.8168 819.555 25.9714 819.385C26.126 819.214 26.3356 819.118 26.5542 819.118C26.7728 819.118 26.9825 819.214 27.137 819.385C27.2916 819.555 27.3784 819.787 27.3784 820.028V937.97C27.3784 938.211 27.2916 938.443 27.137 938.613C26.9825 938.784 26.7728 938.88 26.5542 938.88Z" fill="#263238"/>
<path d="M25.7494 927.331C22.2835 922.019 17.9153 917.5 12.8876 914.026C5.66123 909.584 -6.39551 909.584 -6.39551 909.584C-6.39551 909.584 0.025806 935.305 25.7494 927.331Z" fill="#263238"/>
<path d="M26.5542 927.331C30.0201 922.019 34.3883 917.5 39.416 914.026C46.6424 909.584 58.6991 909.584 58.6991 909.584C58.6991 909.584 52.2586 935.305 26.5542 927.331Z" fill="#263238"/>
<path d="M25.7494 895.413C22.2891 890.095 17.9198 885.576 12.8876 882.108C5.66123 877.666 -6.39551 877.667 -6.39551 877.667C-6.39551 877.667 0.025806 903.387 25.7494 895.413Z" fill="#263238"/>
<path d="M26.5542 895.413C30.0145 890.095 34.3838 885.576 39.416 882.108C46.6424 877.666 58.6991 877.667 58.6991 877.667C58.6991 877.667 52.2586 903.387 26.5542 895.413Z" fill="#263238"/>
<path d="M25.7494 863.474C22.2835 858.162 17.9153 853.643 12.8876 850.169C5.66123 845.749 -6.39551 845.749 -6.39551 845.749C-6.39551 845.749 0.025806 871.469 25.7494 863.474Z" fill="#263238"/>
<path d="M26.5542 863.474C30.0201 858.162 34.3883 853.643 39.416 850.169C46.6424 845.749 58.7758 845.749 58.7758 845.749C58.7758 845.749 52.2586 871.469 26.5542 863.474Z" fill="#263238"/>
<path d="M25.7494 831.556C22.2835 826.243 17.9153 821.725 12.8876 818.251C5.66123 813.83 -6.39551 813.83 -6.39551 813.83C-6.39551 813.83 0.025806 839.53 25.7494 831.556Z" fill="#263238"/>
<path d="M26.5542 831.556C30.0201 826.243 34.3883 821.725 39.416 818.251C46.6424 813.83 58.6991 813.83 58.6991 813.83C58.6991 813.83 52.2586 839.53 26.5542 831.556Z" fill="#263238"/>
<path d="M26.5543 820.028C26.5543 820.028 20.1138 810.488 19.788 801.351C19.4621 792.213 24.9059 780.368 24.9059 780.368C24.9059 780.368 44.6107 798.305 26.5543 820.028Z" fill="#263238"/>
<path d="M95.6172 938.351V884.71C95.6172 884.469 95.5304 884.238 95.3758 884.067C95.2212 883.896 95.0116 883.801 94.793 883.801C94.5744 883.801 94.3647 883.896 94.2102 884.067C94.0556 884.238 93.9687 884.469 93.9688 884.71V938.351H95.6172Z" fill="#263238"/>
<path d="M93.9877 928.156C90.5161 922.867 86.1483 918.37 81.1259 914.915C73.8995 910.494 61.8428 910.494 61.8428 910.494C61.8428 910.494 68.3599 936.067 93.9877 928.156Z" fill="#263238"/>
<path d="M94.7925 928.156C98.264 922.867 102.632 918.37 107.654 914.915C114.881 910.494 126.937 910.494 126.937 910.494C126.937 910.494 120.516 936.067 94.7925 928.156Z" fill="#263238"/>
<path d="M93.9877 896.238C90.5218 890.926 86.1536 886.407 81.1259 882.933C73.8995 878.491 61.8428 878.491 61.8428 878.491C61.8428 878.491 68.3599 904.212 93.9877 896.238Z" fill="#263238"/>
<path d="M94.7925 896.238C98.2584 890.926 102.627 886.407 107.654 882.933C114.881 878.491 126.937 878.491 126.937 878.491C126.937 878.491 120.516 904.212 94.7925 896.238Z" fill="#263238"/>
<path d="M94.793 884.71C94.793 884.71 88.3525 875.17 88.0458 866.033C87.7391 856.895 93.1445 845.114 93.1445 845.114C93.1445 845.114 112.849 862.987 94.793 884.71Z" fill="#263238"/>
<path d="M616.434 938.393V888.771C616.434 888.547 616.353 888.332 616.209 888.173C616.065 888.014 615.87 887.925 615.667 887.925C615.464 887.925 615.269 888.014 615.125 888.173C614.981 888.332 614.9 888.547 614.9 888.771V938.393H616.434Z" fill="#263238"/>
<path d="M614.919 928.959C611.718 924.045 607.681 919.864 603.035 916.649C596.345 912.546 585.189 912.546 585.189 912.546C585.189 912.546 591.132 936.341 614.919 928.959Z" fill="#263238"/>
<path d="M615.667 928.959C618.871 924.04 622.914 919.858 627.57 916.649C634.26 912.546 645.397 912.546 645.397 912.546C645.397 912.546 639.455 936.341 615.667 928.959Z" fill="#263238"/>
<path d="M614.919 899.432C611.718 894.518 607.681 890.337 603.035 887.121C596.345 883.018 585.189 883.018 585.189 883.018C585.189 883.018 591.132 906.814 614.919 899.432Z" fill="#263238"/>
<path d="M615.667 899.432C618.871 894.512 622.914 890.331 627.57 887.121C634.26 883.018 645.397 883.018 645.397 883.018C645.397 883.018 639.455 906.814 615.667 899.432Z" fill="#263238"/>
<path d="M615.667 888.771C615.667 888.771 609.724 879.93 609.418 871.49C609.111 863.051 614.152 852.073 614.152 852.073C614.152 852.073 632.362 868.656 615.667 888.771Z" fill="#263238"/>
<path d="M745.895 938.393V888.771C745.895 888.547 745.814 888.332 745.67 888.173C745.526 888.014 745.331 887.925 745.128 887.925C744.925 887.925 744.73 888.014 744.586 888.173C744.442 888.332 744.361 888.547 744.361 888.771V938.393H745.895Z" fill="#263238"/>
<path d="M744.381 928.959C741.179 924.045 737.143 919.864 732.496 916.649C725.807 912.546 714.651 912.546 714.651 912.546C714.651 912.546 720.593 936.341 744.381 928.959Z" fill="#263238"/>
<path d="M745.128 928.959C748.339 924.047 752.381 919.867 757.031 916.649C763.721 912.546 774.877 912.546 774.877 912.546C774.877 912.546 768.916 936.341 745.128 928.959Z" fill="#263238"/>
<path d="M744.381 899.432C741.179 894.518 737.143 890.337 732.496 887.121C725.807 883.018 714.651 883.018 714.651 883.018C714.651 883.018 720.593 906.814 744.381 899.432Z" fill="#263238"/>
<path d="M745.128 899.432C748.339 894.519 752.381 890.339 757.031 887.121C763.721 883.018 774.877 883.018 774.877 883.018C774.877 883.018 768.916 906.814 745.128 899.432Z" fill="#263238"/>
<path d="M745.128 888.771C745.128 888.771 739.185 879.93 738.879 871.49C738.572 863.051 743.613 852.073 743.613 852.073C743.613 852.073 761.823 868.656 745.128 888.771Z" fill="#263238"/>
<path d="M824.042 938.182H837" stroke="#263238" stroke-width="1.11125" stroke-linecap="round" stroke-linejoin="round"/>
<path d="M139.071 938.182H806.351" stroke="#263238" stroke-width="1.11125" stroke-linecap="round" stroke-linejoin="round"/>
<path d="M-10.2295 938.182H121.379" stroke="#263238" stroke-width="1.11125" stroke-linecap="round" stroke-linejoin="round"/>
</svg>
