<svg width="772" height="858" viewBox="0 0 772 858" fill="none" xmlns="http://www.w3.org/2000/svg">
<path d="M770.924 790.406H701.371V790.982H770.924V790.406Z" fill="#EBEBEB"/>
<path d="M534.33 796.647H516.081V797.222H534.33V796.647Z" fill="#EBEBEB"/>
<path d="M711.908 769.035H671.609V769.61H711.908V769.035Z" fill="#EBEBEB"/>
<path d="M39.6251 772.9H-51.0752V773.476H39.6251V772.9Z" fill="#EBEBEB"/>
<path d="M71.6296 772.9H58.3364V773.476H71.6296V772.9Z" fill="#EBEBEB"/>
<path d="M311.58 782.611H114.849V783.186H311.58V782.611Z" fill="#EBEBEB"/>
<path d="M336.465 650.737H-69.0298C-72.2064 650.731 -75.251 649.344 -77.4953 646.881C-79.7395 644.418 -81 641.079 -81 637.598V13.024C-80.9723 9.56323 -79.6997 6.25421 -77.4584 3.81565C-75.2172 1.37708 -72.1883 0.0059284 -69.0298 0H336.465C339.645 0 342.695 1.38428 344.944 3.84833C347.193 6.31237 348.456 9.65432 348.456 13.139V637.598C348.456 641.083 347.193 644.425 344.944 646.889C342.695 649.353 339.645 650.737 336.465 650.737ZM-69.0298 0.460212C-72.0672 0.466308 -74.9783 1.79267 -77.1241 4.14817C-79.2698 6.50367 -80.475 9.69582 -80.475 13.024V637.598C-80.475 640.927 -79.2698 644.119 -77.1241 646.474C-74.9783 648.83 -72.0672 650.156 -69.0298 650.162H336.465C339.504 650.156 342.418 648.83 344.567 646.476C346.716 644.121 347.926 640.929 347.931 637.598V13.024C347.926 9.69371 346.716 6.5016 344.567 4.14676C342.418 1.79192 339.504 0.466295 336.465 0.460212H-69.0298Z" fill="#EBEBEB"/>
<path d="M760.916 651.105H384.776C381.828 651.099 379.002 649.712 376.917 647.248C374.832 644.784 373.658 641.443 373.653 637.958V13.0313C373.684 9.56653 374.869 6.25566 376.951 3.81636C379.033 1.37706 381.844 0.00586706 384.776 0H760.916C763.843 0.0119826 766.647 1.38659 768.722 3.82588C770.797 6.26517 771.974 9.57261 772 13.0313V637.958C772 641.437 770.833 644.774 768.756 647.238C766.679 649.702 763.859 651.093 760.916 651.105ZM384.776 0.460472C381.957 0.466558 379.254 1.79293 377.261 4.1491C375.268 6.50528 374.145 9.69918 374.14 13.0313V637.958C374.145 641.291 375.268 644.484 377.261 646.841C379.254 649.197 381.957 650.523 384.776 650.529H760.916C763.736 650.523 766.438 649.197 768.431 646.841C770.425 644.484 771.547 641.291 771.552 637.958V13.0313C771.547 9.69918 770.425 6.50528 768.431 4.1491C766.438 1.79293 763.736 0.466558 760.916 0.460472H384.776Z" fill="#EBEBEB"/>
<path d="M766.677 750.442V636.954H718.88V531.727H712.139V592.061H693.743V575.378H660.667V517.622H654.535V447.025H649.621V516.333H637.987V619.006H615.916V516.333H576.099V603.152H534.288V497.925H527.546V558.235H509.15V541.553H476.075V483.796H469.943V413.223H465.028V482.531H453.394V585.181H431.344V482.531H391.506V581.844H364.647V524.088H358.515V453.491H353.622V522.799H341.967V625.472H319.916V522.799H280.079V625.472H260.464V636.954H226.129V531.727H219.388V592.061H200.992V575.378H167.916V517.622H161.784V447.025H156.87V516.333H146.202V510.558H106.364V516.333H84.2929V510.558H72.6587V441.25H67.7657V511.846H61.6336V569.579H28.5371V586.262H10.1618V525.952H3.42073V631.179H-44.376V750.442H766.677Z" fill="#EBEBEB"/>
<path d="M150.679 222.425C180.457 208.91 194.598 171.503 182.264 138.875C169.929 106.247 135.79 90.7523 106.013 104.267C76.2349 117.782 62.0942 155.189 74.4286 187.817C86.7629 220.445 120.902 235.94 150.679 222.425Z" fill="#FAFAFA"/>
<path d="M98.0905 162.638C98.0875 160.906 97.7158 159.199 97.0049 157.651C96.294 156.104 95.2636 154.76 93.9954 153.726C92.7273 152.691 91.2564 151.995 89.6998 151.693C88.1431 151.391 86.5435 151.491 85.0283 151.985C85.4816 148.64 85.2708 145.228 84.4103 141.981C83.5498 138.734 82.0599 135.729 80.0422 133.171C78.0246 130.613 75.5268 128.562 72.7196 127.159C69.9123 125.755 66.8616 125.032 63.776 125.039C62.4508 125.037 61.1286 125.176 59.8279 125.453C57.7162 121.643 54.5319 118.687 50.7545 117.031C46.9771 115.375 42.811 115.109 38.8834 116.272C34.9557 117.435 31.4791 119.964 28.9769 123.479C26.4747 126.994 25.0823 131.305 25.0094 135.762H24.6944C20.105 135.762 15.7036 137.76 12.4584 141.316C9.21325 144.871 7.39014 149.694 7.39014 154.723C7.39014 159.751 9.21325 164.574 12.4584 168.13C15.7036 171.686 20.105 173.683 24.6944 173.683H88.2203C90.8537 173.612 93.3578 172.418 95.2008 170.355C97.0437 168.293 98.0803 165.525 98.0905 162.638Z" fill="#F0F0F0"/>
<path d="M737.109 316.648C737.106 314.916 736.734 313.208 736.024 311.661C735.313 310.114 734.282 308.769 733.014 307.735C731.746 306.701 730.275 306.005 728.718 305.703C727.162 305.4 725.562 305.5 724.047 305.994C724.5 302.65 724.289 299.238 723.429 295.991C722.568 292.744 721.078 289.739 719.061 287.18C717.043 284.622 714.545 282.572 711.738 281.168C708.931 279.765 705.88 279.042 702.795 279.049C701.464 279.05 700.135 279.181 698.825 279.44C696.694 275.649 693.497 272.719 689.716 271.089C685.935 269.459 681.773 269.217 677.855 270.4C673.938 271.582 670.476 274.126 667.991 277.648C665.505 281.17 664.129 285.481 664.07 289.933H663.755C659.166 289.933 654.764 291.93 651.519 295.486C648.274 299.042 646.451 303.865 646.451 308.893C646.451 313.922 648.274 318.745 651.519 322.301C654.764 325.856 659.166 327.854 663.755 327.854H727.281C729.932 327.77 732.448 326.548 734.286 324.453C736.124 322.357 737.138 319.554 737.109 316.648Z" fill="#F0F0F0"/>
<path d="M436.657 147.843C436.647 145.097 437.226 142.387 438.346 139.932C439.467 137.476 441.098 135.343 443.108 133.704C445.119 132.065 447.452 130.967 449.921 130.497C452.39 130.027 454.925 130.199 457.322 130.999C457.086 129.208 456.966 127.401 456.965 125.591C456.958 120.119 458.054 114.713 460.174 109.758C462.294 104.804 465.386 100.423 469.229 96.9281C473.072 93.4335 477.572 90.9115 482.407 89.5418C487.242 88.1722 492.294 87.9888 497.201 89.0047C500.545 82.9616 505.594 78.2757 511.584 75.6556C517.574 73.0355 524.18 72.6236 530.403 74.4822C536.625 76.3408 542.126 80.3688 546.074 85.9573C550.022 91.5457 552.202 98.3907 552.285 105.457H552.768C560.028 105.457 566.991 108.617 572.124 114.242C577.258 119.867 580.142 127.496 580.142 135.451C580.142 143.406 577.258 151.036 572.124 156.661C566.991 162.286 560.028 165.446 552.768 165.446H452.261C448.079 165.32 444.107 163.409 441.192 160.121C438.278 156.832 436.65 152.427 436.657 147.843Z" fill="#F0F0F0"/>
<path d="M140.07 339.336C140.067 336.036 140.769 332.78 142.119 329.83C143.47 326.88 145.432 324.317 147.849 322.347C150.265 320.377 153.069 319.054 156.036 318.483C159.003 317.913 162.051 318.112 164.935 319.064C164.639 316.916 164.491 314.747 164.494 312.575C164.494 300.687 168.804 289.285 176.476 280.879C184.147 272.473 194.553 267.75 205.402 267.75C207.924 267.757 210.44 268.011 212.92 268.51C216.928 261.205 223.003 255.533 230.222 252.359C237.44 249.184 245.408 248.679 252.913 250.922C260.417 253.165 267.048 258.032 271.796 264.783C276.545 271.533 279.151 279.799 279.218 288.322H279.764C284.16 288.2 288.533 289.044 292.627 290.803C296.72 292.562 300.451 295.201 303.599 298.565C306.747 301.928 309.249 305.948 310.957 310.387C312.666 314.827 313.546 319.596 313.546 324.414C313.546 329.232 312.666 334.001 310.957 338.44C309.249 342.88 306.747 346.9 303.599 350.263C300.451 353.627 296.72 356.266 292.627 358.025C288.533 359.784 284.16 360.627 279.764 360.506H158.803C153.779 360.344 149.012 358.042 145.514 354.088C142.016 350.135 140.063 344.843 140.07 339.336Z" fill="#F0F0F0"/>
<path d="M225.374 195.935C225.374 194.104 224.71 192.348 223.528 191.053C222.347 189.759 220.744 189.031 219.074 189.031C218.461 189.024 217.851 189.125 217.268 189.331C217.359 188.622 217.408 187.907 217.415 187.191C217.415 183.309 216.007 179.587 213.503 176.842C210.998 174.098 207.601 172.556 204.058 172.556C203.234 172.558 202.412 172.643 201.601 172.809C200.285 170.437 198.3 168.599 195.947 167.571C193.593 166.544 190.999 166.383 188.555 167.113C186.11 167.843 183.949 169.424 182.397 171.618C180.845 173.812 179.986 176.499 179.95 179.275H179.761C176.909 179.275 174.174 180.516 172.158 182.726C170.142 184.935 169.009 187.932 169.009 191.056C169.009 194.181 170.142 197.178 172.158 199.387C174.174 201.597 176.909 202.838 179.761 202.838H219.263C220.9 202.784 222.455 202.033 223.596 200.744C224.737 199.455 225.374 197.73 225.374 195.935Z" fill="#F0F0F0"/>
<path d="M-4.32812 405.791C-4.32812 403.96 -3.66437 402.204 -2.48288 400.909C-1.30138 399.615 0.301079 398.887 1.97197 398.887C2.58976 398.886 3.20473 398.978 3.79898 399.164C3.69625 398.464 3.64708 397.755 3.65198 397.047C3.65198 395.125 3.99746 393.222 4.66867 391.446C5.33988 389.671 6.32368 388.057 7.56392 386.698C8.80416 385.339 10.2765 384.261 11.897 383.526C13.5174 382.79 15.2542 382.412 17.0082 382.412C17.8325 382.414 18.6549 382.499 19.4652 382.665C20.7815 380.293 22.7662 378.455 25.1196 377.427C27.4731 376.4 30.0677 376.239 32.5119 376.969C34.9561 377.699 37.1174 379.28 38.6696 381.474C40.2217 383.668 41.0806 386.355 41.1165 389.131H41.3055C44.1572 389.131 46.892 390.372 48.9085 392.582C50.9249 394.791 52.0577 397.788 52.0577 400.912C52.0577 404.037 50.9249 407.034 48.9085 409.243C46.892 411.452 44.1572 412.694 41.3055 412.694H1.80396C0.162362 412.646 -1.39727 411.897 -2.54267 410.608C-3.68807 409.318 -4.32871 407.59 -4.32812 405.791Z" fill="#F0F0F0"/>
<path d="M586.81 428.341C586.81 426.51 587.473 424.754 588.655 423.46C589.836 422.165 591.439 421.438 593.11 421.438C593.727 421.436 594.342 421.529 594.937 421.714C594.834 421.014 594.785 420.306 594.79 419.597C594.79 415.716 596.197 411.993 598.702 409.249C601.206 406.504 604.604 404.962 608.146 404.962C608.97 404.964 609.793 405.049 610.603 405.215C611.919 402.844 613.904 401.005 616.257 399.978C618.611 398.95 621.205 398.789 623.65 399.519C626.094 400.249 628.255 401.83 629.807 404.024C631.359 406.218 632.218 408.906 632.254 411.681H632.443C635.295 411.681 638.03 412.923 640.046 415.132C642.063 417.341 643.195 420.338 643.195 423.463C643.195 426.587 642.063 429.584 640.046 431.793C638.03 434.003 635.295 435.244 632.443 435.244H592.942C591.3 435.196 589.74 434.448 588.595 433.158C587.45 431.869 586.809 430.14 586.81 428.341Z" fill="#F0F0F0"/>
<path d="M363.766 857.28C588.642 857.28 770.941 845.618 770.941 831.232C770.941 816.846 588.642 805.184 363.766 805.184C138.889 805.184 -43.4092 816.846 -43.4092 831.232C-43.4092 845.618 138.889 857.28 363.766 857.28Z" fill="#F5F5F5"/>
<path d="M655.249 151.939L565.473 301.714L561.525 308.318L553.713 312.276L275.837 453.768L303.284 556.832L309.563 580.395L287.807 600.091L100.337 799.708H-54.792L225.688 544.475L208.699 443.137L204.079 415.547L225.793 404.594L521.94 255.187L618.394 124.441L592.521 118.826L673.856 81.8485L669.677 178.24L655.249 151.939Z" fill="#263238"/>
<path opacity="0.6" d="M655.249 151.939L565.473 301.714L561.525 308.318L553.713 312.276L275.837 453.768L303.284 556.832L309.563 580.395L287.807 600.091L100.337 799.708H-54.792L225.688 544.475L208.699 443.137L204.079 415.547L225.793 404.594L521.94 255.187L618.394 124.441L592.521 118.826L673.856 81.8485L669.677 178.24L655.249 151.939Z" fill="#FAFAFA"/>
<path d="M608.314 790.388H459.631C458.17 790.388 456.985 791.686 456.985 793.288V830.427C456.985 832.028 458.17 833.326 459.631 833.326H608.314C609.775 833.326 610.96 832.028 610.96 830.427V793.288C610.96 791.686 609.775 790.388 608.314 790.388Z" fill="#008CFF"/>
<path opacity="0.2" d="M469.964 792.874H463.874V831.232H469.964V792.874Z" fill="black"/>
<path opacity="0.2" d="M483.803 792.689H479.372V831.048H483.803V792.689Z" fill="black"/>
<path opacity="0.2" d="M496.55 792.874H494.324V831.232H496.55V792.874Z" fill="black"/>
<path opacity="0.2" d="M513.728 792.689H512.615V831.048H513.728V792.689Z" fill="black"/>
<path opacity="0.2" d="M597.981 831.048H604.071V792.689H597.981V831.048Z" fill="black"/>
<path opacity="0.2" d="M584.142 831.232H588.573V792.873H584.142V831.232Z" fill="black"/>
<path opacity="0.2" d="M571.417 831.048H573.622V792.689H571.417V831.048Z" fill="black"/>
<path opacity="0.2" d="M554.217 831.232H555.33V792.873H554.217V831.232Z" fill="black"/>
<path opacity="0.2" d="M533.699 831.232H534.245V792.873H533.699V831.232Z" fill="black"/>
<path opacity="0.2" d="M606.844 796.923H461.416C460.926 796.923 460.456 796.71 460.11 796.33C459.763 795.951 459.568 795.436 459.568 794.898C459.574 794.363 459.77 793.852 460.116 793.473C460.461 793.095 460.928 792.88 461.416 792.874H606.844C607.334 792.874 607.804 793.087 608.15 793.467C608.497 793.846 608.692 794.361 608.692 794.898C608.694 795.165 608.648 795.43 608.557 795.677C608.465 795.924 608.329 796.148 608.157 796.337C607.984 796.526 607.78 796.675 607.554 796.776C607.329 796.876 607.087 796.926 606.844 796.923Z" fill="white"/>
<path d="M612.514 747.566H463.832C462.37 747.566 461.186 748.864 461.186 750.465V787.604C461.186 789.205 462.37 790.504 463.832 790.504H612.514C613.975 790.504 615.16 789.205 615.16 787.604V750.465C615.16 748.864 613.975 747.566 612.514 747.566Z" fill="#008CFF"/>
<path opacity="0.2" d="M474.164 750.051H468.074V788.41H474.164V750.051Z" fill="black"/>
<path opacity="0.2" d="M488.023 749.867H483.592V788.225H488.023V749.867Z" fill="black"/>
<path opacity="0.2" d="M500.75 750.051H498.545V788.41H500.75V750.051Z" fill="black"/>
<path opacity="0.2" d="M517.928 749.867H516.815V788.225H517.928V749.867Z" fill="black"/>
<path opacity="0.2" d="M602.202 788.203H608.292V749.844H602.202V788.203Z" fill="black"/>
<path opacity="0.2" d="M588.342 788.386H592.773V750.028H588.342V788.386Z" fill="black"/>
<path opacity="0.2" d="M575.595 788.203H577.821V749.844H575.595V788.203Z" fill="black"/>
<path opacity="0.2" d="M558.417 788.386H559.53V750.028H558.417V788.386Z" fill="black"/>
<path opacity="0.2" d="M537.9 788.386H538.446V750.028H537.9V788.386Z" fill="black"/>
<path opacity="0.2" d="M611.044 754.101H465.617C465.128 754.095 464.661 753.88 464.316 753.501C463.97 753.123 463.774 752.611 463.769 752.076C463.769 751.539 463.963 751.024 464.31 750.644C464.656 750.264 465.126 750.051 465.617 750.051H611.044C611.287 750.048 611.529 750.098 611.754 750.199C611.98 750.299 612.185 750.448 612.357 750.637C612.529 750.826 612.665 751.05 612.757 751.297C612.849 751.544 612.895 751.809 612.892 752.076C612.892 752.613 612.697 753.128 612.35 753.508C612.004 753.887 611.534 754.101 611.044 754.101Z" fill="white"/>
<path d="M612.514 704.743H463.832C462.37 704.743 461.186 706.041 461.186 707.643V744.782C461.186 746.383 462.37 747.681 463.832 747.681H612.514C613.975 747.681 615.16 746.383 615.16 744.782V707.643C615.16 706.041 613.975 704.743 612.514 704.743Z" fill="#008CFF"/>
<path opacity="0.2" d="M474.164 707.205H468.074V745.564H474.164V707.205Z" fill="black"/>
<path opacity="0.2" d="M488.023 707.021H483.592V745.38H488.023V707.021Z" fill="black"/>
<path opacity="0.2" d="M500.75 707.205H498.545V745.564H500.75V707.205Z" fill="black"/>
<path opacity="0.2" d="M517.928 707.021H516.815V745.38H517.928V707.021Z" fill="black"/>
<path opacity="0.2" d="M602.202 745.38H608.292V707.021H602.202V745.38Z" fill="black"/>
<path opacity="0.2" d="M588.342 745.564H592.773V707.205H588.342V745.564Z" fill="black"/>
<path opacity="0.2" d="M575.595 745.38H577.821V707.021H575.595V745.38Z" fill="black"/>
<path opacity="0.2" d="M558.417 745.564H559.53V707.205H558.417V745.564Z" fill="black"/>
<path opacity="0.2" d="M537.9 745.564H538.446V707.205H537.9V745.564Z" fill="black"/>
<path opacity="0.2" d="M611.044 711.255H465.617C465.126 711.255 464.656 711.042 464.31 710.662C463.963 710.282 463.769 709.767 463.769 709.23C463.774 708.695 463.97 708.183 464.316 707.805C464.661 707.427 465.128 707.211 465.617 707.205H611.044C611.534 707.205 612.004 707.419 612.35 707.798C612.697 708.178 612.892 708.693 612.892 709.23C612.895 709.497 612.849 709.762 612.757 710.009C612.665 710.256 612.529 710.48 612.357 710.669C612.185 710.858 611.98 711.007 611.754 711.107C611.529 711.208 611.287 711.258 611.044 711.255Z" fill="white"/>
<path d="M608.314 661.898H459.631C458.17 661.898 456.985 663.196 456.985 664.797V701.936C456.985 703.537 458.17 704.835 459.631 704.835H608.314C609.775 704.835 610.96 703.537 610.96 701.936V664.797C610.96 663.196 609.775 661.898 608.314 661.898Z" fill="#008CFF"/>
<path opacity="0.2" d="M469.964 664.383H463.874V702.741H469.964V664.383Z" fill="black"/>
<path opacity="0.2" d="M483.803 664.199H479.372V702.557H483.803V664.199Z" fill="black"/>
<path opacity="0.2" d="M496.55 664.383H494.324V702.741H496.55V664.383Z" fill="black"/>
<path opacity="0.2" d="M513.728 664.199H512.615V702.557H513.728V664.199Z" fill="black"/>
<path opacity="0.2" d="M597.981 702.534H604.071V664.176H597.981V702.534Z" fill="black"/>
<path opacity="0.2" d="M584.142 702.718H588.573V664.36H584.142V702.718Z" fill="black"/>
<path opacity="0.2" d="M571.417 702.534H573.622V664.176H571.417V702.534Z" fill="black"/>
<path opacity="0.2" d="M554.217 702.718H555.33V664.36H554.217V702.718Z" fill="black"/>
<path opacity="0.2" d="M533.699 702.718H534.245V664.36H533.699V702.718Z" fill="black"/>
<path opacity="0.2" d="M606.844 668.433H461.416C460.928 668.427 460.461 668.211 460.116 667.833C459.77 667.454 459.574 666.943 459.568 666.408C459.568 665.871 459.763 665.355 460.11 664.976C460.456 664.596 460.926 664.383 461.416 664.383H606.844C607.087 664.38 607.329 664.43 607.554 664.531C607.78 664.631 607.984 664.78 608.157 664.969C608.329 665.158 608.465 665.382 608.557 665.629C608.648 665.876 608.694 666.141 608.692 666.408C608.692 666.945 608.497 667.46 608.15 667.839C607.804 668.219 607.334 668.433 606.844 668.433Z" fill="white"/>
<path d="M602.014 619.075H453.332C451.87 619.075 450.686 620.373 450.686 621.974V659.113C450.686 660.715 451.87 662.013 453.332 662.013H602.014C603.475 662.013 604.66 660.715 604.66 659.113V621.974C604.66 620.373 603.475 619.075 602.014 619.075Z" fill="#008CFF"/>
<path opacity="0.2" d="M463.664 621.537H457.574V659.896H463.664V621.537Z" fill="black"/>
<path opacity="0.2" d="M477.502 621.353H473.071V659.712H477.502V621.353Z" fill="black"/>
<path opacity="0.2" d="M490.229 621.537H488.024V659.896H490.229V621.537Z" fill="black"/>
<path opacity="0.2" d="M507.428 621.353H506.315V659.712H507.428V621.353Z" fill="black"/>
<path opacity="0.2" d="M591.682 659.712H597.772V621.353H591.682V659.712Z" fill="black"/>
<path opacity="0.2" d="M577.821 659.896H582.252V621.537H577.821V659.896Z" fill="black"/>
<path opacity="0.2" d="M565.116 659.712H567.321V621.353H565.116V659.712Z" fill="black"/>
<path opacity="0.2" d="M547.938 659.896H549.051V621.537H547.938V659.896Z" fill="black"/>
<path opacity="0.2" d="M527.399 659.896H527.945V621.537H527.399V659.896Z" fill="black"/>
<path opacity="0.2" d="M600.544 625.587H455.117C454.873 625.59 454.632 625.54 454.406 625.439C454.181 625.338 453.976 625.189 453.804 625.001C453.632 624.812 453.496 624.588 453.404 624.341C453.312 624.094 453.266 623.829 453.269 623.562C453.269 623.025 453.463 622.51 453.81 622.13C454.157 621.75 454.627 621.537 455.117 621.537H600.544C601.034 621.537 601.504 621.75 601.851 622.13C602.197 622.51 602.392 623.025 602.392 623.562C602.395 623.829 602.349 624.094 602.257 624.341C602.165 624.588 602.029 624.812 601.857 625.001C601.685 625.189 601.48 625.338 601.254 625.439C601.029 625.54 600.787 625.59 600.544 625.587Z" fill="white"/>
<path d="M608.314 576.229H459.631C458.17 576.229 456.985 577.528 456.985 579.129V616.268C456.985 617.869 458.17 619.167 459.631 619.167H608.314C609.775 619.167 610.96 617.869 610.96 616.268V579.129C610.96 577.528 609.775 576.229 608.314 576.229Z" fill="#008CFF"/>
<path opacity="0.2" d="M469.964 578.715H463.874V617.073H469.964V578.715Z" fill="black"/>
<path opacity="0.2" d="M483.803 578.531H479.372V616.889H483.803V578.531Z" fill="black"/>
<path opacity="0.2" d="M496.55 578.715H494.324V617.073H496.55V578.715Z" fill="black"/>
<path opacity="0.2" d="M513.728 578.531H512.615V616.889H513.728V578.531Z" fill="black"/>
<path opacity="0.2" d="M597.981 616.866H604.071V578.508H597.981V616.866Z" fill="black"/>
<path opacity="0.2" d="M584.142 617.05H588.573V578.692H584.142V617.05Z" fill="black"/>
<path opacity="0.2" d="M571.417 616.866H573.622V578.508H571.417V616.866Z" fill="black"/>
<path opacity="0.2" d="M554.217 617.05H555.33V578.692H554.217V617.05Z" fill="black"/>
<path opacity="0.2" d="M533.699 617.05H534.245V578.692H533.699V617.05Z" fill="black"/>
<path opacity="0.2" d="M606.844 582.764H461.416C460.926 582.764 460.456 582.551 460.11 582.171C459.763 581.792 459.568 581.277 459.568 580.74C459.568 580.203 459.763 579.687 460.11 579.308C460.456 578.928 460.926 578.715 461.416 578.715H606.844C607.087 578.712 607.329 578.762 607.554 578.862C607.78 578.963 607.984 579.112 608.157 579.301C608.329 579.489 608.465 579.714 608.557 579.961C608.648 580.208 608.694 580.473 608.692 580.74C608.694 581.006 608.648 581.271 608.557 581.518C608.465 581.765 608.329 581.99 608.157 582.178C607.984 582.367 607.78 582.516 607.554 582.617C607.329 582.717 607.087 582.768 606.844 582.764Z" fill="white"/>
<path d="M608.314 533.407H459.631C458.17 533.407 456.985 534.705 456.985 536.306V573.445C456.985 575.047 458.17 576.345 459.631 576.345H608.314C609.775 576.345 610.96 575.047 610.96 573.445V536.306C610.96 534.705 609.775 533.407 608.314 533.407Z" fill="#008CFF"/>
<path opacity="0.2" d="M469.964 535.869H463.874V574.228H469.964V535.869Z" fill="black"/>
<path opacity="0.2" d="M483.803 535.685H479.372V574.044H483.803V535.685Z" fill="black"/>
<path opacity="0.2" d="M496.55 535.869H494.324V574.228H496.55V535.869Z" fill="black"/>
<path opacity="0.2" d="M513.728 535.685H512.615V574.044H513.728V535.685Z" fill="black"/>
<path opacity="0.2" d="M597.981 574.043H604.071V535.685H597.981V574.043Z" fill="black"/>
<path opacity="0.2" d="M584.142 574.228H588.573V535.869H584.142V574.228Z" fill="black"/>
<path opacity="0.2" d="M571.417 574.043H573.622V535.685H571.417V574.043Z" fill="black"/>
<path opacity="0.2" d="M554.217 574.228H555.33V535.869H554.217V574.228Z" fill="black"/>
<path opacity="0.2" d="M533.699 574.228H534.245V535.869H533.699V574.228Z" fill="black"/>
<path opacity="0.2" d="M606.844 539.942H461.416C460.924 539.936 460.454 539.717 460.108 539.334C459.762 538.951 459.568 538.433 459.568 537.894C459.574 537.359 459.77 536.847 460.116 536.469C460.461 536.09 460.928 535.875 461.416 535.869H606.844C607.334 535.869 607.804 536.082 608.15 536.462C608.497 536.842 608.692 537.357 608.692 537.894C608.694 538.162 608.649 538.428 608.557 538.676C608.465 538.924 608.33 539.15 608.158 539.341C607.986 539.531 607.781 539.682 607.556 539.786C607.33 539.889 607.088 539.942 606.844 539.942Z" fill="white"/>
<path d="M614.614 490.561H465.932C464.47 490.561 463.286 491.859 463.286 493.461V530.6C463.286 532.201 464.47 533.499 465.932 533.499H614.614C616.075 533.499 617.26 532.201 617.26 530.6V493.461C617.26 491.859 616.075 490.561 614.614 490.561Z" fill="#008CFF"/>
<path opacity="0.2" d="M476.263 493.046H470.173V531.405H476.263V493.046Z" fill="black"/>
<path opacity="0.2" d="M490.123 492.862H485.692V531.221H490.123V492.862Z" fill="black"/>
<path opacity="0.2" d="M502.871 493.046H500.645V531.405H502.871V493.046Z" fill="black"/>
<path opacity="0.2" d="M520.028 492.862H518.915V531.221H520.028V492.862Z" fill="black"/>
<path opacity="0.2" d="M604.303 531.198H610.393V492.839H604.303V531.198Z" fill="black"/>
<path opacity="0.2" d="M590.443 531.405H594.874V493.046H590.443V531.405Z" fill="black"/>
<path opacity="0.2" d="M577.716 531.198H579.921V492.839H577.716V531.198Z" fill="black"/>
<path opacity="0.2" d="M560.516 531.405H561.629V493.046H560.516V531.405Z" fill="black"/>
<path opacity="0.2" d="M540.021 531.405H540.567V493.046H540.021V531.405Z" fill="black"/>
<path opacity="0.2" d="M613.143 497.027H467.737C467.493 497.03 467.25 496.98 467.024 496.88C466.797 496.779 466.591 496.631 466.417 496.442C466.243 496.254 466.105 496.03 466.011 495.783C465.917 495.535 465.868 495.27 465.868 495.002C465.868 494.734 465.917 494.469 466.011 494.222C466.105 493.975 466.243 493.751 466.417 493.562C466.591 493.374 466.797 493.225 467.024 493.125C467.25 493.025 467.493 492.974 467.737 492.977H613.143C613.388 492.974 613.63 493.025 613.857 493.125C614.084 493.225 614.29 493.374 614.464 493.562C614.637 493.751 614.776 493.975 614.87 494.222C614.964 494.469 615.012 494.734 615.012 495.002C615.012 495.27 614.964 495.535 614.87 495.783C614.776 496.03 614.637 496.254 614.464 496.442C614.29 496.631 614.084 496.779 613.857 496.88C613.63 496.98 613.388 497.03 613.143 497.027Z" fill="white"/>
<path d="M604.114 447.739H455.432C453.97 447.739 452.786 449.037 452.786 450.638V487.777C452.786 489.378 453.97 490.676 455.432 490.676H604.114C605.575 490.676 606.76 489.378 606.76 487.777V450.638C606.76 449.037 605.575 447.739 604.114 447.739Z" fill="#008CFF"/>
<path opacity="0.2" d="M465.763 450.224H459.673V488.582H465.763V450.224Z" fill="black"/>
<path opacity="0.2" d="M479.602 450.017H475.171V488.375H479.602V450.017Z" fill="black"/>
<path opacity="0.2" d="M492.329 450.224H490.124V488.582H492.329V450.224Z" fill="black"/>
<path opacity="0.2" d="M509.528 450.017H508.415V488.375H509.528V450.017Z" fill="black"/>
<path opacity="0.2" d="M593.782 488.375H599.872V450.017H593.782V488.375Z" fill="black"/>
<path opacity="0.2" d="M579.921 488.559H584.352V450.201H579.921V488.559Z" fill="black"/>
<path opacity="0.2" d="M567.216 488.375H569.421V450.017H567.216V488.375Z" fill="black"/>
<path opacity="0.2" d="M550.017 488.559H551.13V450.201H550.017V488.559Z" fill="black"/>
<path opacity="0.2" d="M529.499 488.559H530.045V450.201H529.499V488.559Z" fill="black"/>
<path opacity="0.2" d="M602.643 454.274H457.216C456.728 454.268 456.261 454.052 455.915 453.674C455.57 453.296 455.374 452.784 455.368 452.249C455.368 451.712 455.563 451.197 455.909 450.817C456.256 450.437 456.726 450.224 457.216 450.224H602.643C602.887 450.221 603.128 450.271 603.354 450.372C603.579 450.472 603.784 450.621 603.956 450.81C604.129 450.999 604.265 451.223 604.356 451.47C604.448 451.717 604.494 451.982 604.491 452.249C604.491 452.786 604.297 453.301 603.95 453.681C603.604 454.06 603.133 454.274 602.643 454.274Z" fill="white"/>
<path d="M599.914 404.893H451.231C449.77 404.893 448.585 406.191 448.585 407.792V444.931C448.585 446.533 449.77 447.831 451.231 447.831H599.914C601.375 447.831 602.56 446.533 602.56 444.931V407.792C602.56 406.191 601.375 404.893 599.914 404.893Z" fill="#008CFF"/>
<path opacity="0.2" d="M461.564 407.378H455.474V445.737H461.564V407.378Z" fill="black"/>
<path opacity="0.2" d="M475.403 407.194H470.972V445.553H475.403V407.194Z" fill="black"/>
<path opacity="0.2" d="M488.15 407.378H485.924V445.737H488.15V407.378Z" fill="black"/>
<path opacity="0.2" d="M505.328 407.194H504.215V445.553H505.328V407.194Z" fill="black"/>
<path opacity="0.2" d="M589.582 445.53H595.672V407.171H589.582V445.53Z" fill="black"/>
<path opacity="0.2" d="M575.721 445.737H580.152V407.378H575.721V445.737Z" fill="black"/>
<path opacity="0.2" d="M562.995 445.53H565.2V407.171H562.995V445.53Z" fill="black"/>
<path opacity="0.2" d="M545.837 445.737H546.95V407.378H545.837V445.737Z" fill="black"/>
<path opacity="0.2" d="M525.3 445.737H525.846V407.378H525.3V445.737Z" fill="black"/>
<path opacity="0.2" d="M598.444 411.428H453.017C452.773 411.431 452.532 411.381 452.306 411.28C452.081 411.18 451.876 411.031 451.704 410.842C451.531 410.653 451.395 410.429 451.304 410.182C451.212 409.935 451.166 409.67 451.169 409.403C451.166 409.136 451.212 408.872 451.304 408.625C451.395 408.378 451.531 408.153 451.704 407.965C451.876 407.776 452.081 407.627 452.306 407.526C452.532 407.425 452.773 407.375 453.017 407.378H598.444C598.687 407.375 598.929 407.425 599.154 407.526C599.38 407.627 599.585 407.776 599.757 407.965C599.929 408.153 600.065 408.378 600.157 408.625C600.249 408.872 600.295 409.136 600.292 409.403C600.295 409.67 600.249 409.935 600.157 410.182C600.065 410.429 599.929 410.653 599.757 410.842C599.585 411.031 599.38 411.18 599.154 411.28C598.929 411.381 598.687 411.431 598.444 411.428Z" fill="white"/>
<path d="M419.206 790.388H270.524C269.062 790.388 267.877 791.686 267.877 793.288V830.427C267.877 832.028 269.062 833.326 270.524 833.326H419.206C420.667 833.326 421.852 832.028 421.852 830.427V793.288C421.852 791.686 420.667 790.388 419.206 790.388Z" fill="#008CFF"/>
<path opacity="0.2" d="M280.835 792.874H274.745V831.232H280.835V792.874Z" fill="black"/>
<path opacity="0.2" d="M294.695 792.689H290.264V831.048H294.695V792.689Z" fill="black"/>
<path opacity="0.2" d="M307.421 792.874H305.216V831.232H307.421V792.874Z" fill="black"/>
<path opacity="0.2" d="M324.599 792.689H323.486V831.048H324.599V792.689Z" fill="black"/>
<path opacity="0.2" d="M408.874 831.048H414.964V792.689H408.874V831.048Z" fill="black"/>
<path opacity="0.2" d="M395.013 831.232H399.444V792.873H395.013V831.232Z" fill="black"/>
<path opacity="0.2" d="M382.287 831.048H384.492V792.689H382.287V831.048Z" fill="black"/>
<path opacity="0.2" d="M365.109 831.232H366.222V792.873H365.109V831.232Z" fill="black"/>
<path opacity="0.2" d="M344.592 831.232H345.138V792.873H344.592V831.232Z" fill="black"/>
<path opacity="0.2" d="M417.736 796.923H272.309C272.065 796.926 271.824 796.876 271.598 796.776C271.373 796.675 271.168 796.526 270.996 796.337C270.823 796.148 270.687 795.924 270.596 795.677C270.504 795.43 270.458 795.165 270.461 794.898C270.461 794.361 270.655 793.846 271.002 793.467C271.348 793.087 271.818 792.874 272.309 792.874H417.736C418.224 792.88 418.691 793.095 419.036 793.473C419.382 793.852 419.578 794.363 419.584 794.898C419.584 795.436 419.389 795.951 419.043 796.33C418.696 796.71 418.226 796.923 417.736 796.923Z" fill="white"/>
<path d="M412.885 747.566H264.203C262.741 747.566 261.557 748.864 261.557 750.465V787.604C261.557 789.205 262.741 790.504 264.203 790.504H412.885C414.346 790.504 415.531 789.205 415.531 787.604V750.465C415.531 748.864 414.346 747.566 412.885 747.566Z" fill="#008CFF"/>
<path opacity="0.2" d="M274.535 750.051H268.445V788.41H274.535V750.051Z" fill="black"/>
<path opacity="0.2" d="M288.395 749.867H283.964V788.225H288.395V749.867Z" fill="black"/>
<path opacity="0.2" d="M301.121 750.051H298.916V788.41H301.121V750.051Z" fill="black"/>
<path opacity="0.2" d="M318.3 749.867H317.187V788.225H318.3V749.867Z" fill="black"/>
<path opacity="0.2" d="M402.574 788.203H408.664V749.844H402.574V788.203Z" fill="black"/>
<path opacity="0.2" d="M388.713 788.386H393.145V750.028H388.713V788.386Z" fill="black"/>
<path opacity="0.2" d="M375.987 788.203H378.192V749.844H375.987V788.203Z" fill="black"/>
<path opacity="0.2" d="M358.788 788.386H359.901V750.028H358.788V788.386Z" fill="black"/>
<path opacity="0.2" d="M338.271 788.386H338.817V750.028H338.271V788.386Z" fill="black"/>
<path opacity="0.2" d="M411.414 754.101H265.987C265.499 754.095 265.032 753.88 264.686 753.501C264.341 753.123 264.145 752.611 264.139 752.076C264.139 751.539 264.334 751.024 264.68 750.644C265.027 750.264 265.497 750.051 265.987 750.051H411.414C411.658 750.048 411.899 750.098 412.125 750.199C412.35 750.299 412.555 750.448 412.727 750.637C412.9 750.826 413.036 751.05 413.127 751.297C413.219 751.544 413.265 751.809 413.262 752.076C413.262 752.613 413.068 753.128 412.721 753.508C412.375 753.887 411.904 754.101 411.414 754.101Z" fill="white"/>
<path d="M419.206 704.743H270.524C269.062 704.743 267.877 706.041 267.877 707.643V744.782C267.877 746.383 269.062 747.681 270.524 747.681H419.206C420.667 747.681 421.852 746.383 421.852 744.782V707.643C421.852 706.041 420.667 704.743 419.206 704.743Z" fill="#008CFF"/>
<path opacity="0.2" d="M280.835 707.205H274.745V745.564H280.835V707.205Z" fill="black"/>
<path opacity="0.2" d="M294.695 707.021H290.264V745.38H294.695V707.021Z" fill="black"/>
<path opacity="0.2" d="M307.421 707.205H305.216V745.564H307.421V707.205Z" fill="black"/>
<path opacity="0.2" d="M324.599 707.021H323.486V745.38H324.599V707.021Z" fill="black"/>
<path opacity="0.2" d="M408.874 745.38H414.964V707.021H408.874V745.38Z" fill="black"/>
<path opacity="0.2" d="M395.013 745.564H399.444V707.205H395.013V745.564Z" fill="black"/>
<path opacity="0.2" d="M382.287 745.38H384.492V707.021H382.287V745.38Z" fill="black"/>
<path opacity="0.2" d="M365.109 745.564H366.222V707.205H365.109V745.564Z" fill="black"/>
<path opacity="0.2" d="M344.592 745.564H345.138V707.205H344.592V745.564Z" fill="black"/>
<path opacity="0.2" d="M417.736 711.255H272.309C272.065 711.258 271.824 711.208 271.598 711.107C271.373 711.007 271.168 710.858 270.996 710.669C270.823 710.48 270.687 710.256 270.596 710.009C270.504 709.762 270.458 709.497 270.461 709.23C270.461 708.693 270.655 708.178 271.002 707.798C271.348 707.419 271.818 707.205 272.309 707.205H417.736C418.224 707.211 418.691 707.427 419.036 707.805C419.382 708.183 419.578 708.695 419.584 709.23C419.584 709.767 419.389 710.282 419.043 710.662C418.696 711.042 418.226 711.255 417.736 711.255Z" fill="white"/>
<path d="M414.984 661.898H266.302C264.841 661.898 263.656 663.196 263.656 664.797V701.936C263.656 703.537 264.841 704.835 266.302 704.835H414.984C416.446 704.835 417.63 703.537 417.63 701.936V664.797C417.63 663.196 416.446 661.898 414.984 661.898Z" fill="#008CFF"/>
<path opacity="0.2" d="M276.635 664.383H270.544V702.741H276.635V664.383Z" fill="black"/>
<path opacity="0.2" d="M290.495 664.199H286.064V702.557H290.495V664.199Z" fill="black"/>
<path opacity="0.2" d="M303.221 664.383H301.016V702.741H303.221V664.383Z" fill="black"/>
<path opacity="0.2" d="M320.4 664.199H319.287V702.557H320.4V664.199Z" fill="black"/>
<path opacity="0.2" d="M404.674 702.534H410.764V664.176H404.674V702.534Z" fill="black"/>
<path opacity="0.2" d="M390.814 702.718H395.245V664.36H390.814V702.718Z" fill="black"/>
<path opacity="0.2" d="M378.066 702.534H380.292V664.176H378.066V702.534Z" fill="black"/>
<path opacity="0.2" d="M360.888 702.718H362.001V664.36H360.888V702.718Z" fill="black"/>
<path opacity="0.2" d="M340.392 702.718H340.938V664.36H340.392V702.718Z" fill="black"/>
<path opacity="0.2" d="M413.515 668.433H268.109C267.617 668.433 267.144 668.22 266.795 667.841C266.445 667.462 266.245 666.947 266.24 666.408C266.24 666.14 266.288 665.875 266.382 665.627C266.477 665.38 266.615 665.156 266.788 664.968C266.962 664.779 267.168 664.631 267.395 664.53C267.622 664.43 267.864 664.38 268.109 664.383H413.515C413.759 664.38 414.002 664.43 414.229 664.53C414.455 664.631 414.661 664.779 414.835 664.968C415.009 665.156 415.147 665.38 415.241 665.627C415.336 665.875 415.384 666.14 415.384 666.408C415.378 666.947 415.179 667.462 414.829 667.841C414.479 668.22 414.007 668.433 413.515 668.433Z" fill="white"/>
<path d="M414.984 619.075H266.302C264.841 619.075 263.656 620.373 263.656 621.974V659.113C263.656 660.715 264.841 662.013 266.302 662.013H414.984C416.446 662.013 417.63 660.715 417.63 659.113V621.974C417.63 620.373 416.446 619.075 414.984 619.075Z" fill="#008CFF"/>
<path opacity="0.2" d="M276.635 621.537H270.544V659.896H276.635V621.537Z" fill="black"/>
<path opacity="0.2" d="M290.495 621.353H286.064V659.712H290.495V621.353Z" fill="black"/>
<path opacity="0.2" d="M303.221 621.537H301.016V659.896H303.221V621.537Z" fill="black"/>
<path opacity="0.2" d="M320.4 621.353H319.287V659.712H320.4V621.353Z" fill="black"/>
<path opacity="0.2" d="M404.674 659.712H410.764V621.353H404.674V659.712Z" fill="black"/>
<path opacity="0.2" d="M390.814 659.896H395.245V621.537H390.814V659.896Z" fill="black"/>
<path opacity="0.2" d="M378.066 659.712H380.292V621.353H378.066V659.712Z" fill="black"/>
<path opacity="0.2" d="M360.888 659.896H362.001V621.537H360.888V659.896Z" fill="black"/>
<path opacity="0.2" d="M340.392 659.896H340.938V621.537H340.392V659.896Z" fill="black"/>
<path opacity="0.2" d="M413.515 625.587H268.109C267.864 625.59 267.622 625.54 267.395 625.44C267.168 625.339 266.962 625.19 266.788 625.002C266.615 624.814 266.477 624.59 266.382 624.342C266.288 624.095 266.24 623.83 266.24 623.562C266.245 623.023 266.445 622.508 266.795 622.129C267.144 621.75 267.617 621.537 268.109 621.537H413.515C414.007 621.537 414.479 621.75 414.829 622.129C415.179 622.508 415.378 623.023 415.384 623.562C415.384 623.83 415.336 624.095 415.241 624.342C415.147 624.59 415.009 624.814 414.835 625.002C414.661 625.19 414.455 625.339 414.229 625.44C414.002 625.54 413.759 625.59 413.515 625.587Z" fill="white"/>
<path d="M414.984 576.229H266.302C264.841 576.229 263.656 577.528 263.656 579.129V616.268C263.656 617.869 264.841 619.167 266.302 619.167H414.984C416.446 619.167 417.63 617.869 417.63 616.268V579.129C417.63 577.528 416.446 576.229 414.984 576.229Z" fill="#008CFF"/>
<path opacity="0.2" d="M276.635 578.715H270.544V617.073H276.635V578.715Z" fill="black"/>
<path opacity="0.2" d="M290.495 578.531H286.064V616.889H290.495V578.531Z" fill="black"/>
<path opacity="0.2" d="M303.221 578.715H301.016V617.073H303.221V578.715Z" fill="black"/>
<path opacity="0.2" d="M320.4 578.531H319.287V616.889H320.4V578.531Z" fill="black"/>
<path opacity="0.2" d="M404.674 616.866H410.764V578.508H404.674V616.866Z" fill="black"/>
<path opacity="0.2" d="M390.814 617.05H395.245V578.692H390.814V617.05Z" fill="black"/>
<path opacity="0.2" d="M378.066 616.866H380.292V578.508H378.066V616.866Z" fill="black"/>
<path opacity="0.2" d="M360.888 617.05H362.001V578.692H360.888V617.05Z" fill="black"/>
<path opacity="0.2" d="M340.392 617.05H340.938V578.692H340.392V617.05Z" fill="black"/>
<path opacity="0.2" d="M413.515 582.764H268.109C267.864 582.768 267.622 582.717 267.395 582.617C267.168 582.517 266.962 582.368 266.788 582.18C266.615 581.991 266.477 581.767 266.382 581.52C266.288 581.273 266.24 581.007 266.24 580.74C266.24 580.472 266.288 580.206 266.382 579.959C266.477 579.712 266.615 579.488 266.788 579.299C266.962 579.111 267.168 578.962 267.395 578.862C267.622 578.762 267.864 578.712 268.109 578.715H413.515C413.759 578.712 414.002 578.762 414.229 578.862C414.455 578.962 414.661 579.111 414.835 579.299C415.009 579.488 415.147 579.712 415.241 579.959C415.336 580.206 415.384 580.472 415.384 580.74C415.384 581.007 415.336 581.273 415.241 581.52C415.147 581.767 415.009 581.991 414.835 582.18C414.661 582.368 414.455 582.517 414.229 582.617C414.002 582.717 413.759 582.768 413.515 582.764Z" fill="white"/>
<path d="M416.812 490.101H268.129C266.668 490.101 265.483 491.399 265.483 493V530.139C265.483 531.741 266.668 533.039 268.129 533.039H416.812C418.273 533.039 419.458 531.741 419.458 530.139V493C419.458 491.399 418.273 490.101 416.812 490.101Z" fill="#008CFF"/>
<path opacity="0.2" d="M278.462 492.586H272.372V530.945H278.462V492.586Z" fill="black"/>
<path opacity="0.2" d="M292.322 492.402H287.891V530.761H292.322V492.402Z" fill="black"/>
<path opacity="0.2" d="M305.048 492.586H302.843V530.945H305.048V492.586Z" fill="black"/>
<path opacity="0.2" d="M322.226 492.402H321.113V530.761H322.226V492.402Z" fill="black"/>
<path opacity="0.2" d="M406.501 530.738H412.591V492.379H406.501V530.738Z" fill="black"/>
<path opacity="0.2" d="M392.641 530.945H397.072V492.586H392.641V530.945Z" fill="black"/>
<path opacity="0.2" d="M379.914 530.738H382.119V492.379H379.914V530.738Z" fill="black"/>
<path opacity="0.2" d="M362.715 530.945H363.828V492.586H362.715V530.945Z" fill="black"/>
<path opacity="0.2" d="M342.219 530.945H342.765V492.586H342.219V530.945Z" fill="black"/>
<path opacity="0.2" d="M415.342 496.636H269.935C269.691 496.639 269.448 496.589 269.222 496.489C268.995 496.388 268.789 496.239 268.615 496.051C268.441 495.863 268.303 495.639 268.209 495.391C268.115 495.144 268.066 494.879 268.066 494.611C268.072 494.072 268.271 493.557 268.621 493.178C268.971 492.799 269.443 492.586 269.935 492.586H415.342C415.834 492.586 416.306 492.799 416.656 493.178C417.006 493.557 417.205 494.072 417.211 494.611C417.211 494.879 417.162 495.144 417.068 495.391C416.974 495.639 416.836 495.863 416.662 496.051C416.488 496.239 416.282 496.388 416.055 496.489C415.829 496.589 415.586 496.639 415.342 496.636Z" fill="white"/>
<path d="M419.206 533.407H270.524C269.062 533.407 267.877 534.705 267.877 536.306V573.445C267.877 575.047 269.062 576.345 270.524 576.345H419.206C420.667 576.345 421.852 575.047 421.852 573.445V536.306C421.852 534.705 420.667 533.407 419.206 533.407Z" fill="#008CFF"/>
<path opacity="0.2" d="M280.835 535.869H274.745V574.228H280.835V535.869Z" fill="black"/>
<path opacity="0.2" d="M294.695 535.685H290.264V574.044H294.695V535.685Z" fill="black"/>
<path opacity="0.2" d="M307.421 535.869H305.216V574.228H307.421V535.869Z" fill="black"/>
<path opacity="0.2" d="M324.599 535.685H323.486V574.044H324.599V535.685Z" fill="black"/>
<path opacity="0.2" d="M408.874 574.043H414.964V535.685H408.874V574.043Z" fill="black"/>
<path opacity="0.2" d="M395.013 574.228H399.444V535.869H395.013V574.228Z" fill="black"/>
<path opacity="0.2" d="M382.287 574.043H384.492V535.685H382.287V574.043Z" fill="black"/>
<path opacity="0.2" d="M365.109 574.228H366.222V535.869H365.109V574.228Z" fill="black"/>
<path opacity="0.2" d="M344.592 574.228H345.138V535.869H344.592V574.228Z" fill="black"/>
<path opacity="0.2" d="M417.736 539.942H272.309C272.064 539.942 271.822 539.889 271.596 539.786C271.371 539.682 271.166 539.531 270.994 539.341C270.822 539.15 270.687 538.924 270.595 538.676C270.504 538.428 270.458 538.162 270.461 537.894C270.461 537.357 270.655 536.842 271.002 536.462C271.348 536.082 271.818 535.869 272.309 535.869H417.736C418.224 535.875 418.691 536.09 419.036 536.469C419.382 536.847 419.578 537.359 419.584 537.894C419.584 538.433 419.39 538.951 419.044 539.334C418.698 539.717 418.228 539.936 417.736 539.942Z" fill="white"/>
<path d="M363.933 463.225L359.229 473.303L354.441 483.543L346.062 480.183L350.262 471.186L355.554 459.865L363.933 463.225Z" fill="#FFC2BC"/>
<path opacity="0.2" d="M363.933 463.225L359.229 473.303L350.262 471.186L355.554 459.865L363.933 463.225Z" fill="black"/>
<path d="M546.929 406.228C546.677 406.23 546.433 406.13 546.243 405.948C546.053 405.765 545.931 405.513 545.9 405.238C545.606 402.937 518.012 177.434 484.705 78.4889C484.638 78.3447 484.599 78.1865 484.592 78.0247C484.584 77.8629 484.608 77.7012 484.661 77.5501C484.714 77.3991 484.796 77.262 484.901 77.148C485.006 77.034 485.132 76.9456 485.271 76.8885C485.409 76.8315 485.557 76.8071 485.704 76.817C485.852 76.8268 485.996 76.8707 486.127 76.9457C486.258 77.0208 486.373 77.1253 486.465 77.2524C486.556 77.3796 486.622 77.5265 486.658 77.6835C520.07 176.813 547.706 402.684 547.979 404.985C548.015 405.29 547.941 405.598 547.772 405.843C547.603 406.088 547.354 406.251 547.076 406.297L546.929 406.228Z" fill="#263238"/>
<path d="M493.757 399.739L502.682 399.348L504.425 376.659L495.479 377.05L493.757 399.739Z" fill="#FFC2BC"/>
<path d="M503.522 394.17L493.778 393.825C493.6 393.826 493.426 393.889 493.283 394.005C493.139 394.12 493.033 394.283 492.98 394.469L490.88 403.075C490.829 403.283 490.822 403.501 490.859 403.712C490.895 403.923 490.976 404.123 491.093 404.295C491.21 404.468 491.361 404.609 491.535 404.709C491.709 404.808 491.901 404.864 492.098 404.87C495.626 404.87 500.729 404.87 505.16 405.008C510.326 405.192 513.56 405.008 519.692 405.123C523.346 405.238 524.522 401.234 522.989 400.82C516.059 398.91 511.523 399.256 505.643 394.999C505.018 394.516 504.285 394.23 503.522 394.17Z" fill="#263238"/>
<path opacity="0.2" d="M504.425 376.659L503.522 388.349L494.597 388.763L495.479 377.05L504.425 376.659Z" fill="black"/>
<path d="M490.124 317.545C492.392 322.308 492.56 372.241 492.56 384.92H507.995C509.99 371.781 519.86 301.231 505.895 291.152C490.523 280.038 451.546 283.858 451.546 283.858L448.732 277.622L443.104 265.196L410.848 278.427L403.813 281.281L400.915 282.477H400.663C400.663 282.477 400.663 282.822 400.663 283.421C400.768 284.801 401.062 287.586 401.587 291.06C402.196 295.228 403.051 299.348 404.149 303.394C407.131 314.048 412.423 324.103 421.621 320.744C422.02 320.606 422.419 320.422 422.818 320.237C423.574 319.869 424.393 319.524 425.233 319.179C432.606 316.576 440.232 314.931 447.955 314.278C467.444 312.253 488.402 313.864 490.124 317.545Z" fill="#263238"/>
<path d="M508.688 386.393L490.649 386.922L490.544 380.548L510.368 379.651L508.688 386.393Z" fill="#008CFF"/>
<path d="M355.995 478.619H345.117C344.94 478.619 344.769 478.686 344.632 478.807C344.494 478.928 344.399 479.097 344.361 479.286L342.513 487.961C342.468 488.171 342.468 488.39 342.512 488.601C342.555 488.811 342.642 489.008 342.766 489.176C342.889 489.345 343.046 489.48 343.224 489.573C343.402 489.665 343.597 489.712 343.794 489.71C347.301 489.71 349.863 489.411 354.294 489.411C357.003 489.411 365.172 489.733 368.994 489.733C372.816 489.733 373.194 485.66 371.724 485.292C364.878 483.658 359.712 481.38 357.528 479.217C357.322 479.011 357.08 478.851 356.816 478.749C356.553 478.646 356.274 478.602 355.995 478.619Z" fill="#263238"/>
<path d="M435.166 282.385L433.297 289.449C432.31 293.223 430.945 298.354 429.349 304.314L425.359 319.202C418.555 344.399 409.903 375.854 405.115 390.788C395.581 420.425 363.681 473.142 363.681 473.142L348.33 466.976C348.33 466.976 371.892 417.319 379.621 387.267C385.018 366.282 393.481 328.567 399.046 303.233L401.713 291.083C402.616 286.941 403.351 283.559 403.813 281.189C404.275 278.819 404.653 277.3 404.653 277.3L410.848 278.335L435.166 282.385Z" fill="#263238"/>
<path d="M365.34 474.247L347.28 466.976L349.317 461.085L368.574 467.482L365.34 474.247Z" fill="#008CFF"/>
<path opacity="0.2" d="M448.795 277.599L435.166 295.018L433.297 289.449L431.197 283.375L429.286 304.314L404.212 303.417L398.982 303.233L401.65 291.083C401.124 287.609 400.83 284.824 400.725 283.444L400.893 282.408L403.792 281.212C404.338 278.726 404.632 277.323 404.632 277.323L410.827 278.358L443.146 265.196L448.795 277.599Z" fill="black"/>
<path opacity="0.2" d="M448.039 314.301C439.419 314.934 430.93 316.942 422.839 320.26C422.44 320.444 422.041 320.629 421.642 320.767L423.469 310.918C423.469 310.918 439.198 310.113 448.039 314.301Z" fill="black"/>
<path d="M330.753 287.056L325.271 295.018L320.63 285.33C320.63 285.33 325.901 278.542 329.03 281.672L330.753 287.056Z" fill="#FFC2BC"/>
<path d="M316.892 298.654L315.527 288.736L320.63 285.215L325.271 295.018L316.892 298.654Z" fill="#FFC2BC"/>
<path d="M332.243 286.32L330.71 287.171L328.442 280.866L330.878 279.578L332.243 286.32Z" fill="white"/>
<path d="M393.376 228.863C392.578 230.397 391.759 231.869 390.919 233.281C388.805 237.055 386.592 240.767 384.282 244.418L382.371 247.432C380.439 250.47 378.402 253.438 376.218 256.406C375.126 257.879 374.013 259.375 372.774 260.847C371.531 262.389 370.206 263.849 368.805 265.219C363.433 270.23 357.524 274.503 351.207 277.944C345.118 281.392 338.8 284.331 332.307 286.734L329.577 280.015C332.307 278.197 335.142 276.333 337.851 274.401C340.56 272.468 343.311 270.558 345.936 268.533C348.561 266.508 351.144 264.46 353.58 262.32C355.975 260.265 358.248 258.044 360.384 255.67C364.416 250.536 368.048 245.04 371.241 239.241C374.748 233.281 379.179 222.834 382.644 216.874L393.376 228.863Z" fill="#263238"/>
<path opacity="0.2" d="M390.918 233.281C388.804 237.054 386.592 240.767 384.282 244.418C384.516 239.578 385.744 234.859 387.873 230.611C389.138 231.091 390.214 232.034 390.918 233.281Z" fill="black"/>
<path d="M511.334 204.08L505.244 210.293L506.105 216.046C508.331 219.267 513.455 215.286 514.652 214.274C514.843 214.122 515.047 213.991 515.261 213.883L518.495 212.456C519.067 212.196 519.542 211.731 519.843 211.138C520.144 210.545 520.254 209.858 520.154 209.189L519.524 204.955C519.467 204.557 519.336 204.177 519.14 203.837C518.944 203.496 518.687 203.203 518.385 202.975C518.082 202.747 517.741 202.589 517.381 202.51C517.021 202.431 516.65 202.433 516.29 202.516L512.657 203.321C512.158 203.427 511.698 203.691 511.334 204.08Z" fill="#FFC2BC"/>
<path d="M503.837 210.339L505.517 209.879L506.483 216.552L503.837 217.242V210.339Z" fill="white"/>
<path d="M505.244 217.288C498.573 218.836 491.806 219.835 485 220.28C477.987 220.876 470.933 220.521 463.999 219.221C462.153 218.834 460.33 218.327 458.539 217.702C456.775 217.104 455.137 216.46 453.499 215.793C450.244 214.481 447.199 213.077 444.028 211.536L440.311 209.695C437.497 208.268 434.725 206.795 431.911 205.254C429.811 204.149 427.858 202.953 425.842 201.756L431.239 187.697C437.014 190.872 443.839 195.175 449.635 198.328C455.076 201.532 460.76 204.211 466.624 206.335C469.565 207.188 472.553 207.826 475.571 208.245C478.679 208.728 481.871 209.028 485.042 209.304C488.213 209.58 491.489 209.741 494.723 209.787C497.957 209.833 501.275 209.948 504.467 209.994L505.244 217.288Z" fill="#263238"/>
<path opacity="0.2" d="M440.248 209.695C437.434 208.268 434.662 206.796 431.848 205.254L430.756 198.719C434.958 201.101 438.303 204.969 440.248 209.695Z" fill="black"/>
<path d="M384.514 215.609C387.985 224.964 390.752 234.614 392.788 244.464C394.3 251.367 399.655 258.27 400.579 264.598C401.461 271.578 402.723 278.493 404.359 285.308C410.764 281.534 430.147 276.863 443.147 269.2C443.693 211.858 429.643 189.492 429.643 189.492C426.076 190.486 422.569 191.723 419.143 193.196L416.875 194.232C410.62 197.466 404.522 201.053 398.605 204.978C397.45 205.737 396.295 206.519 395.182 207.279C389.47 211.375 384.514 215.609 384.514 215.609Z" fill="#008CFF"/>
<path opacity="0.7" d="M384.514 215.609C387.985 224.964 390.752 234.614 392.788 244.464C394.3 251.367 399.655 258.27 400.579 264.598C401.461 271.578 402.723 278.493 404.359 285.308C410.764 281.534 430.147 276.863 443.147 269.2C443.693 211.858 429.643 189.492 429.643 189.492C426.076 190.486 422.569 191.723 419.143 193.196L416.875 194.232C410.62 197.466 404.522 201.053 398.605 204.978C397.45 205.737 396.295 206.519 395.182 207.279C389.47 211.375 384.514 215.609 384.514 215.609Z" fill="white"/>
<path d="M418.933 214.527L419.731 209.212L416.392 208.982L414.354 211.444L418.933 214.527Z" fill="#008CFF"/>
<path d="M416.392 208.982C410.218 212.755 404.107 208.36 400.159 205.346L399.739 205.024C401.482 202.378 401.65 198.121 401.083 193.841C400.412 189.111 399.257 184.48 397.639 180.034L411.772 188.916C411.772 189.975 411.604 190.918 411.562 191.747C411.373 193.749 411.352 195.106 412.36 195.981C413.927 196.939 415.714 197.378 417.505 197.246C419.122 199.294 420.634 206.381 416.392 208.982Z" fill="#FFC2BC"/>
<path d="M395.265 207.348C395.265 207.348 413.052 227.689 426.073 238.757C426.073 238.757 425.107 202.792 419.227 193.242L431.323 187.697C431.323 187.697 442.957 215.862 444.616 262.895L449.866 274.746L435.166 291.129L430.441 278.98L427.27 299.137L396.945 302.082L400.662 279.072L382.749 216.943L395.265 207.348Z" fill="#263238"/>
<path d="M417.337 213.446C417.337 213.446 421.537 229.139 421.243 237.515L426.661 240.598L427.627 235.996C427.627 235.996 422.86 215.77 418.471 212.226L417.337 213.446Z" fill="#008CFF"/>
<path d="M395.895 205.668C395.895 205.668 418.114 232.383 425.968 238.757C425.968 238.757 423.679 202.585 418.576 193.496C418.576 193.496 422.083 190.849 429.559 198.834L425.821 206.427L432.457 211.444C432.457 211.444 430.189 238.55 425.821 251.413C426.138 248.697 426.278 245.959 426.241 243.221L400.179 227.39L401.335 218.646L391.485 218.186C391.485 218.186 392.577 207.854 395.895 205.668Z" fill="#263238"/>
<path opacity="0.2" d="M395.895 205.668C395.895 205.668 418.114 232.383 425.968 238.757C425.968 238.757 423.679 202.585 418.576 193.496C418.576 193.496 422.083 190.849 429.559 198.834L425.821 206.427L432.457 211.444C432.457 211.444 430.189 238.55 425.821 251.413C426.138 248.697 426.278 245.959 426.241 243.221L400.179 227.39L401.335 218.646L391.485 218.186C391.485 218.186 392.577 207.854 395.895 205.668Z" fill="white"/>
<path d="M486.365 80.1227C486.365 80.1227 473.765 78.558 466.73 82.1936C459.694 85.8293 452.617 97.6797 441.193 98.8072C429.769 99.9347 427.48 95.8619 427.48 95.8619C427.48 95.8619 437.539 115.421 456.88 115.214C476.222 115.007 486.281 111.509 497.684 119.379C497.726 119.379 488.948 86.2205 486.365 80.1227Z" fill="#008CFF"/>
<path opacity="0.2" d="M412.359 195.935C411.183 199.938 408.264 205.599 401.355 205.461C400.957 205.497 400.557 205.497 400.158 205.461L399.738 205.139C401.481 202.493 401.649 198.236 401.082 193.956C404.188 191.753 407.962 190.984 411.582 191.816C411.372 193.703 411.351 195.06 412.359 195.935Z" fill="black"/>
<path d="M416.392 208.982C416.503 211.762 415.96 214.527 414.817 217.012C410.932 216.414 399.319 210.109 398.731 204.84C399.03 203.575 399.658 202.432 400.537 201.549C404.964 205.815 410.519 208.419 416.392 208.982Z" fill="white"/>
<path d="M416.392 208.982C418.554 209.596 420.567 210.719 422.293 212.272C423.385 207.325 418.87 195.428 417.715 194.784C415.832 194.584 413.933 194.933 412.213 195.797C412.213 195.797 418.555 202.286 416.392 208.982Z" fill="white"/>
<path d="M385.29 175.064C385.059 178.999 387.39 186.362 391.422 182.681C395.454 178.999 385.689 168.299 385.29 175.064Z" fill="#263238"/>
<path d="M410.428 173.568C413.032 182.773 414.985 188.111 412.402 194.439C408.496 203.965 396.82 203.942 391.717 195.681C387.139 188.272 383.632 174.374 390.541 167.494C392.068 165.976 393.921 164.907 395.928 164.387C397.934 163.866 400.028 163.912 402.014 164.518C404 165.125 405.814 166.273 407.285 167.856C408.756 169.438 409.838 171.404 410.428 173.568Z" fill="#FFC2BC"/>
<path d="M411.772 161.856C410.932 155.827 404.401 156.679 400.579 159.854V171.751C402.053 170.983 403.459 170.066 404.779 169.012C404.779 169.012 406.27 177.917 411.247 180.518C417.589 173.776 418.114 163.375 411.772 161.856Z" fill="#263238"/>
<path d="M416.266 179.804C416.386 182.223 415.632 184.595 414.166 186.408C412.171 188.709 409.609 187.214 408.874 184.245C408.139 181.277 408.433 177.181 410.974 175.915C411.556 175.65 412.19 175.546 412.818 175.613C413.446 175.681 414.049 175.918 414.573 176.303C415.097 176.688 415.526 177.209 415.821 177.82C416.117 178.431 416.269 179.113 416.266 179.804Z" fill="#FFC2BC"/>
<path d="M398.71 181.162C398.962 181.898 398.71 182.635 398.353 182.819C397.996 183.003 397.345 182.542 397.093 181.806C396.841 181.07 397.093 180.333 397.45 180.149C397.807 179.965 398.437 180.425 398.71 181.162Z" fill="#263238"/>
<path d="M391.066 184.222C391.339 184.959 391.171 185.695 390.73 185.879C390.289 186.063 389.722 185.603 389.47 184.867C389.218 184.13 389.365 183.394 389.806 183.21C390.247 183.026 390.793 183.486 391.066 184.222Z" fill="#263238"/>
<path d="M393.606 183.624C393.523 186.135 393.12 188.621 392.409 191.01C392.992 191.17 393.599 191.191 394.189 191.072C394.78 190.953 395.34 190.697 395.832 190.32L393.606 183.624Z" fill="#ED893E"/>
<path d="M400.432 191.701L399.571 192.115C399.518 192.136 399.459 192.134 399.408 192.108C399.357 192.082 399.317 192.035 399.298 191.977C399.278 191.919 399.281 191.855 399.304 191.799C399.328 191.743 399.371 191.699 399.424 191.678C400.269 191.362 401.034 190.833 401.658 190.134C402.281 189.434 402.746 188.584 403.015 187.651C403.02 187.62 403.03 187.591 403.046 187.565C403.061 187.539 403.082 187.517 403.105 187.5C403.129 187.483 403.155 187.471 403.183 187.465C403.211 187.46 403.239 187.46 403.267 187.467C403.294 187.472 403.321 187.483 403.344 187.5C403.367 187.518 403.386 187.54 403.4 187.567C403.414 187.593 403.422 187.623 403.425 187.653C403.427 187.684 403.423 187.714 403.414 187.743C403.19 188.591 402.809 189.379 402.297 190.06C401.784 190.74 401.149 191.299 400.432 191.701Z" fill="#263238"/>
<path d="M400.137 177.526C400.07 177.566 399.994 177.588 399.917 177.588C399.84 177.588 399.764 177.566 399.696 177.526C399.255 177.197 398.749 176.988 398.22 176.916C397.69 176.844 397.152 176.911 396.651 177.112C396.548 177.161 396.432 177.163 396.327 177.118C396.223 177.072 396.139 176.983 396.095 176.87C396.05 176.758 396.048 176.63 396.09 176.516C396.131 176.401 396.212 176.309 396.315 176.261C396.944 175.998 397.622 175.905 398.291 175.989C398.959 176.073 399.6 176.332 400.158 176.744C400.25 176.814 400.314 176.919 400.337 177.039C400.361 177.158 400.342 177.283 400.284 177.388C400.244 177.445 400.194 177.492 400.137 177.526Z" fill="#263238"/>
<path d="M386.865 182.681C386.784 182.714 386.694 182.714 386.613 182.681C386.558 182.675 386.504 182.657 386.455 182.628C386.406 182.6 386.363 182.561 386.328 182.514C386.293 182.467 386.266 182.413 386.25 182.354C386.235 182.296 386.229 182.235 386.235 182.174C386.295 181.435 386.517 180.722 386.883 180.097C387.249 179.472 387.747 178.953 388.335 178.585C388.385 178.557 388.439 178.541 388.494 178.536C388.55 178.532 388.605 178.539 388.658 178.558C388.711 178.578 388.76 178.608 388.802 178.648C388.843 178.688 388.878 178.737 388.902 178.792C388.955 178.899 388.966 179.024 388.935 179.14C388.903 179.257 388.831 179.355 388.734 179.413C388.279 179.712 387.898 180.128 387.624 180.626C387.349 181.123 387.19 181.686 387.159 182.266C387.155 182.36 387.124 182.45 387.071 182.524C387.019 182.598 386.947 182.653 386.865 182.681Z" fill="#263238"/>
<path d="M404.59 169.081C404.59 169.081 399.277 175.087 394.089 174.788C395.488 174.091 396.762 173.125 397.849 171.935C397.849 171.935 387.705 176.744 382.707 174.236C377.709 171.727 378.276 169.012 378.276 169.012C378.276 169.012 378.843 170.6 383.694 170.439C383.694 170.439 379.494 167.425 381.195 163.168C381.438 163.677 381.794 164.111 382.231 164.429C382.668 164.747 383.172 164.938 383.694 164.985C385.34 162.208 387.55 159.887 390.151 158.202C392.753 156.517 395.675 155.515 398.689 155.275C409.588 153.917 411.793 158.635 412.276 162.178C412.759 165.722 404.59 169.081 404.59 169.081Z" fill="#263238"/>
<path d="M230.077 790.388H81.3951C79.9337 790.388 78.749 791.687 78.749 793.288V830.427C78.749 832.028 79.9337 833.326 81.3951 833.326H230.077C231.539 833.326 232.723 832.028 232.723 830.427V793.288C232.723 791.687 231.539 790.388 230.077 790.388Z" fill="#008CFF"/>
<path opacity="0.2" d="M91.7273 792.874H85.6372V831.232H91.7273V792.874Z" fill="black"/>
<path opacity="0.2" d="M105.566 792.689H101.135V831.048H105.566V792.689Z" fill="black"/>
<path opacity="0.2" d="M118.292 792.874H116.087V831.232H118.292V792.874Z" fill="black"/>
<path opacity="0.2" d="M135.471 792.689H134.358V831.048H135.471V792.689Z" fill="black"/>
<path opacity="0.2" d="M219.745 831.048H225.835V792.69H219.745V831.048Z" fill="black"/>
<path opacity="0.2" d="M205.906 831.232H210.337V792.874H205.906V831.232Z" fill="black"/>
<path opacity="0.2" d="M193.159 831.048H195.364V792.69H193.159V831.048Z" fill="black"/>
<path opacity="0.2" d="M175.98 831.232H177.093V792.874H175.98V831.232Z" fill="black"/>
<path opacity="0.2" d="M155.463 831.232H156.009V792.874H155.463V831.232Z" fill="black"/>
<path opacity="0.2" d="M228.607 796.923H83.1802C82.9367 796.926 82.6951 796.876 82.4696 796.776C82.2442 796.675 82.0393 796.526 81.8671 796.337C81.695 796.148 81.559 795.924 81.4671 795.677C81.3752 795.43 81.3293 795.165 81.3322 794.898C81.3322 794.361 81.5269 793.846 81.8734 793.467C82.22 793.087 82.69 792.874 83.1802 792.874H228.607C229.097 792.874 229.568 793.087 229.914 793.467C230.261 793.846 230.455 794.361 230.455 794.898C230.458 795.165 230.412 795.43 230.32 795.677C230.229 795.924 230.093 796.148 229.92 796.337C229.748 796.526 229.543 796.675 229.318 796.776C229.092 796.876 228.851 796.926 228.607 796.923Z" fill="white"/>
<path d="M232.177 747.566H83.4952C82.0338 747.566 80.8491 748.864 80.8491 750.465V787.604C80.8491 789.205 82.0338 790.504 83.4952 790.504H232.177C233.639 790.504 234.823 789.205 234.823 787.604V750.465C234.823 748.864 233.639 747.566 232.177 747.566Z" fill="#008CFF"/>
<path opacity="0.2" d="M93.8274 750.051H87.7373V788.41H93.8274V750.051Z" fill="black"/>
<path opacity="0.2" d="M107.666 749.867H103.235V788.225H107.666V749.867Z" fill="black"/>
<path opacity="0.2" d="M120.393 750.051H118.188V788.41H120.393V750.051Z" fill="black"/>
<path opacity="0.2" d="M137.592 749.867H136.479V788.225H137.592V749.867Z" fill="black"/>
<path opacity="0.2" d="M221.845 788.202H227.936V749.844H221.845V788.202Z" fill="black"/>
<path opacity="0.2" d="M207.985 788.386H212.417V750.028H207.985V788.386Z" fill="black"/>
<path opacity="0.2" d="M195.259 788.202H197.464V749.844H195.259V788.202Z" fill="black"/>
<path opacity="0.2" d="M178.081 788.386H179.194V750.028H178.081V788.386Z" fill="black"/>
<path opacity="0.2" d="M157.563 788.386H158.109V750.028H157.563V788.386Z" fill="black"/>
<path opacity="0.2" d="M230.707 754.101H85.2803C84.7901 754.101 84.3201 753.887 83.9735 753.508C83.6269 753.128 83.4323 752.613 83.4323 752.076C83.4294 751.809 83.4753 751.544 83.5672 751.297C83.6591 751.05 83.7951 750.826 83.9672 750.637C84.1394 750.448 84.3443 750.299 84.5697 750.199C84.7952 750.098 85.0368 750.048 85.2803 750.051H230.707C230.951 750.048 231.192 750.098 231.418 750.199C231.643 750.299 231.848 750.448 232.02 750.637C232.193 750.826 232.329 751.05 232.421 751.297C232.512 751.544 232.558 751.809 232.555 752.076C232.555 752.613 232.361 753.128 232.014 753.508C231.668 753.887 231.198 754.101 230.707 754.101Z" fill="white"/>
<path d="M223.777 704.743H75.0953C73.6339 704.743 72.4492 706.041 72.4492 707.643V744.782C72.4492 746.383 73.6339 747.681 75.0953 747.681H223.777C225.239 747.681 226.423 746.383 226.423 744.782V707.643C226.423 706.041 225.239 704.743 223.777 704.743Z" fill="#008CFF"/>
<path opacity="0.2" d="M85.4065 707.205H79.3164V745.564H85.4065V707.205Z" fill="black"/>
<path opacity="0.2" d="M99.2665 707.021H94.8354V745.38H99.2665V707.021Z" fill="black"/>
<path opacity="0.2" d="M111.993 707.205H109.788V745.564H111.993V707.205Z" fill="black"/>
<path opacity="0.2" d="M129.171 707.021H128.058V745.38H129.171V707.021Z" fill="black"/>
<path opacity="0.2" d="M213.425 745.38H219.515V707.021H213.425V745.38Z" fill="black"/>
<path opacity="0.2" d="M199.606 745.564H204.037V707.205H199.606V745.564Z" fill="black"/>
<path opacity="0.2" d="M186.859 745.38H189.064V707.021H186.859V745.38Z" fill="black"/>
<path opacity="0.2" d="M169.68 745.564H170.793V707.205H169.68V745.564Z" fill="black"/>
<path opacity="0.2" d="M149.163 745.564H149.709V707.205H149.163V745.564Z" fill="black"/>
<path opacity="0.2" d="M222.308 711.255H76.8804C76.6369 711.258 76.3953 711.208 76.1698 711.107C75.9444 711.007 75.7395 710.858 75.5673 710.669C75.3952 710.48 75.2592 710.256 75.1673 710.009C75.0754 709.762 75.0295 709.497 75.0323 709.23C75.0323 708.693 75.227 708.178 75.5736 707.798C75.9202 707.419 76.3902 707.205 76.8804 707.205H222.308C222.796 707.211 223.263 707.427 223.608 707.805C223.954 708.183 224.15 708.695 224.156 709.23C224.156 709.767 223.961 710.282 223.614 710.662C223.268 711.042 222.798 711.255 222.308 711.255Z" fill="white"/>
<path d="M140.028 676.348L135.807 687.738L132.615 696.344L124.593 693.215L127.47 685.483L132.006 673.196L140.028 676.348Z" fill="#E4897B"/>
<path d="M311.475 615.37L304.65 620.916L302.151 614.841L296.354 600.805L303.18 595.236L308.661 608.536L311.475 615.37Z" fill="#E4897B"/>
<path opacity="0.2" d="M132.006 673.196L140.028 676.348L135.807 687.738L127.47 685.483L132.006 673.196Z" fill="black"/>
<path opacity="0.2" d="M308.661 608.536L302.151 614.841L296.354 600.805L303.18 595.236L308.661 608.536Z" fill="black"/>
<path d="M200.236 360.989C200.467 361.702 200.992 362.14 201.412 361.979C201.832 361.817 202 361.104 201.769 360.391C201.538 359.678 201.013 359.24 200.593 359.401C200.173 359.562 199.963 360.276 200.236 360.989Z" fill="#263238"/>
<path d="M200.929 362.163C202.397 364.027 204.093 365.661 205.969 367.018C205.644 367.539 205.217 367.975 204.719 368.293C204.222 368.612 203.666 368.805 203.092 368.859L200.929 362.163Z" fill="#DE5753"/>
<path d="M196.603 357.975C196.507 358.005 196.405 358.005 196.309 357.975C196.24 357.894 196.201 357.787 196.201 357.676C196.201 357.565 196.24 357.458 196.309 357.376C196.661 356.794 197.133 356.31 197.688 355.966C198.243 355.622 198.864 355.427 199.501 355.398C199.609 355.403 199.71 355.455 199.785 355.54C199.859 355.626 199.9 355.74 199.9 355.858C199.9 355.917 199.889 355.976 199.868 356.031C199.847 356.085 199.815 356.134 199.776 356.175C199.737 356.216 199.69 356.248 199.639 356.269C199.589 356.289 199.534 356.298 199.48 356.295C198.975 356.318 198.482 356.475 198.043 356.751C197.604 357.028 197.233 357.416 196.96 357.883C196.91 357.924 196.852 357.953 196.79 357.969C196.729 357.985 196.665 357.987 196.603 357.975Z" fill="#263238"/>
<path d="M184.696 372.586C184.801 379.49 184.003 392.053 178.984 395.712C178.984 395.712 179.551 402.845 190.933 405.054C203.533 407.516 198.031 399.417 198.031 399.417C191.5 396.31 192.571 390.788 194.608 385.794L184.696 372.586Z" fill="#E4897B"/>
<path d="M178.186 367.823C181.462 376.337 182.995 381.63 188.455 384.437C196.645 388.809 205.256 381.031 204.269 371.62C203.471 363.129 198.22 350.634 189.316 350.174C187.357 350.064 185.405 350.505 183.645 351.455C181.885 352.404 180.376 353.831 179.261 355.599C178.146 357.367 177.462 359.419 177.274 361.558C177.086 363.698 177.4 365.854 178.186 367.823Z" fill="#E4897B"/>
<path d="M183.73 381.676C187.426 383.309 199.039 374.197 195.07 363.704C195.07 363.704 199.039 356.686 197.611 349.898C196.183 343.11 191.521 341.062 187.111 343.271C183.205 345.204 183.625 347.62 183.625 347.62C183.625 347.62 164.725 353.051 169.891 360.989C163.234 371.482 179.089 379.674 183.73 381.676Z" fill="#263238"/>
<path d="M191.962 366.097C192.794 368.206 194.232 369.96 196.057 371.091C198.493 372.54 199.9 370.515 199.396 367.823C198.892 365.131 197.149 361.725 194.629 361.38C192.109 361.035 190.996 363.566 191.962 366.097Z" fill="#E4897B"/>
<path d="M175.96 395.781C175.078 393.848 174.112 391.639 176.254 391.041C178.396 390.443 193.6 389.476 197.947 391.041C196.519 393.641 198.724 396.955 198.724 396.955L175.96 395.781Z" fill="#008CFF"/>
<path opacity="0.5" d="M175.96 395.781C175.078 393.848 174.112 391.639 176.254 391.041C178.396 390.443 193.6 389.476 197.947 391.041C196.519 393.641 198.724 396.955 198.724 396.955L175.96 395.781Z" fill="#FAFAFA"/>
<path d="M133.161 692.617H123.879C123.711 692.618 123.548 692.683 123.418 692.8C123.288 692.918 123.199 693.08 123.165 693.261L121.485 701.545C121.439 701.745 121.437 701.953 121.477 702.155C121.518 702.356 121.6 702.544 121.718 702.705C121.836 702.865 121.986 702.994 122.157 703.08C122.328 703.166 122.515 703.208 122.703 703.202C126.042 703.202 130.893 702.925 135.093 702.925C140.028 702.925 144.27 703.225 150.045 703.225C153.552 703.225 154.518 699.359 153.048 699.014C146.391 697.403 140.973 697.242 135.219 693.353C134.607 692.908 133.895 692.653 133.161 692.617Z" fill="#263238"/>
<path d="M193.222 478.044C193.222 478.044 190.576 497.579 187.363 520.038C185.956 529.656 184.444 539.804 182.953 549.192C181.294 559.708 179.677 569.234 178.333 575.953C172.474 605.177 141.372 685.714 141.372 685.714L126.147 682.101C126.147 682.101 147.903 619.443 152.754 578.553C156.513 547.19 163.885 478.021 163.885 478.021L193.222 478.044Z" fill="#263238"/>
<path d="M145.005 680.122L142.17 686.151L125.034 682.078L126.462 676.509L145.005 680.122Z" fill="#008CFF"/>
<path opacity="0.3" d="M145.005 680.122L142.17 686.151L125.034 682.078L126.462 676.509L145.005 680.122Z" fill="black"/>
<path opacity="0.2" d="M187.363 520.038C185.956 529.656 184.444 539.804 182.953 549.192C178.753 530.623 180.118 519.509 180.118 519.509L187.363 520.038Z" fill="black"/>
<path d="M168.337 412.832C164.242 417.066 159.937 421.553 156.031 426.04C152.083 430.433 148.341 435.041 144.816 439.846C143.313 442.228 141.958 444.719 140.763 447.302C139.461 450.086 138.138 452.916 136.878 455.815L129.171 473.257L123.123 470.956C124.425 464.49 126.084 458.186 127.89 451.858C128.835 448.705 129.843 445.553 130.956 442.4C132.13 439.01 133.57 435.738 135.261 432.621C138.674 426.916 142.509 421.529 146.727 416.513C150.807 411.495 155.155 406.747 159.748 402.293L168.337 412.832Z" fill="#DC897C"/>
<path d="M122.619 487.984L125.706 481.978L116.298 478.849C115.768 480.239 115.508 481.734 115.537 483.24C115.566 484.746 115.883 486.229 116.466 487.593L122.619 487.984Z" fill="#E4897B"/>
<path d="M129.15 473.165L123.123 471.025L116.298 478.849L125.706 481.978L129.15 473.165Z" fill="#E4897B"/>
<path d="M311.37 614.105L303.704 620.341C303.571 620.454 303.475 620.612 303.433 620.792C303.391 620.971 303.406 621.161 303.473 621.33L306.624 629.085C306.698 629.275 306.812 629.443 306.956 629.577C307.1 629.71 307.27 629.805 307.453 629.854C307.637 629.903 307.828 629.905 308.012 629.859C308.196 629.814 308.368 629.722 308.514 629.591C311.16 627.29 312.357 626.139 315.717 623.401C317.817 621.721 322.605 618.017 325.482 615.693C328.359 613.369 326.616 609.94 325.251 610.63C319.14 613.645 315.612 613.967 312.798 613.668C312.289 613.618 311.781 613.774 311.37 614.105Z" fill="#263238"/>
<path d="M164.683 396.655C156.514 396.103 144.459 415.455 144.459 415.455L156.346 433.242C161.562 429.908 165.903 425.152 168.946 419.436C174.595 408.989 173.02 397.231 164.683 396.655Z" fill="#008CFF"/>
<path opacity="0.6" d="M164.683 396.655C156.514 396.103 144.459 415.455 144.459 415.455L156.346 433.242C161.562 429.908 165.903 425.152 168.946 419.436C174.595 408.989 173.02 397.231 164.683 396.655Z" fill="#FAFAFA"/>
<path opacity="0.2" d="M166.992 414.512C161.637 417.664 158.067 425.419 155.82 432.437L156.345 433.242C161.562 429.908 165.903 425.152 168.946 419.436C169.282 418.838 169.597 418.193 169.891 417.572L166.992 414.512Z" fill="black"/>
<path d="M213.025 395.229C213.025 395.229 217.918 408.713 209.35 478.067H163.884C163.569 470.404 167.958 433.081 161.217 397.047C166.245 395.978 171.331 395.271 176.443 394.93C182.26 394.63 201.643 390.327 206.767 390.857C213.508 391.501 213.025 395.229 213.025 395.229Z" fill="#008CFF"/>
<path opacity="0.6" d="M214.096 425.81C213.55 438.074 212.185 454.964 209.35 478.044H163.884C163.569 470.381 167.958 433.058 161.217 397.024C166.245 395.955 171.331 395.248 176.443 394.907C182.26 394.607 201.643 390.305 206.767 390.834C213.508 391.501 213.067 395.229 213.067 395.229C213.067 395.229 214.096 398.059 214.369 407.792C214.474 412.234 214.453 418.101 214.096 425.81Z" fill="#FAFAFA"/>
<path d="M207.502 474.017L216.491 497.027C216.491 497.027 260.024 503.01 272.372 519.417C284.721 535.823 308.073 602.392 308.073 602.392L296.439 613.23C296.439 613.23 263.048 545.948 253.703 537.825C244.358 529.702 191.164 529.725 179.278 524.87C167.392 520.015 163.969 477.975 163.969 477.975L207.502 474.017Z" fill="#263238"/>
<path d="M293.96 611.965L307.989 600.183L309.795 603.98L296.354 615.601L293.96 611.965Z" fill="#008CFF"/>
<path opacity="0.3" d="M293.96 611.965L307.989 600.183L309.795 603.98L296.354 615.601L293.96 611.965Z" fill="black"/>
<path d="M197.863 353.211C197.863 353.211 197.338 339.543 190.744 339.083C184.15 338.623 178.963 345.158 178.963 345.158C178.324 344.286 177.515 343.581 176.596 343.095C175.677 342.609 174.67 342.355 173.65 342.351C169.911 342.12 163.401 349.093 163.401 349.093C163.401 349.093 171.528 343.616 174.952 346.124C174.952 346.124 165.732 348.932 163.401 355.328C162.401 358.578 160.751 361.542 158.571 364.003H163.401L160.23 369.917C160.23 369.917 166.908 376.981 171.949 375.808L170.331 379.167C170.331 379.167 180.223 383.125 184.255 381.906C188.287 380.686 184.465 358.688 184.465 358.688L197.863 353.211Z" fill="#263238"/>
<path opacity="0.2" d="M214.096 425.81C205.843 419.666 205.969 405.514 205.969 405.514L214.369 407.815C214.474 412.233 214.453 418.101 214.096 425.81Z" fill="black"/>
<path d="M137.97 495.67L81.8784 485.338L67.3672 532.648L76.6493 551.125L137.886 559.961L150.297 508.418L137.97 495.67Z" fill="#008CFF"/>
<path opacity="0.4" d="M67.3672 532.648L70.9792 539.85L71.7983 541.438L76.6493 551.125L137.886 559.961L150.297 508.418L145.026 502.987L143.409 501.307L137.991 495.67L81.8784 485.338L67.3672 532.648Z" fill="black"/>
<path opacity="0.2" d="M150.297 508.418L94.7726 498.96L81.8784 485.338L137.991 495.67L150.297 508.418Z" fill="white"/>
<path opacity="0.1" d="M94.7726 498.96L76.6493 551.125L67.3672 532.648L81.8784 485.338L94.7726 498.96Z" fill="white"/>
<path d="M70.979 539.85L71.798 541.438L88.5773 492.586L145.026 502.987L143.409 501.307L87.5693 491.505L70.979 539.85Z" fill="#263238"/>
<path d="M126.084 498.477L123.249 495.601L109.116 492.793L111.594 495.923L126.084 498.477Z" fill="#263238"/>
<path d="M131.544 499.628C131.544 499.628 132.195 483.382 131.796 482.301C131.397 481.219 111.51 477.698 110.019 477.353C108.528 477.008 101.976 492.839 101.976 492.839L103.11 494.749L106.869 495.302C106.869 495.302 111.636 481.656 112.119 481.311C117.568 481.946 122.98 482.914 128.331 484.21C128.751 484.579 127.113 496.981 127.113 496.981L128.394 499.006L131.544 499.628Z" fill="#263238"/>
<path d="M71.168 525.445L75.368 531.359L75.767 530.185L78.9381 520.981L79.3161 519.877L79.9881 517.898C79.9881 517.898 78.7911 519.37 77.1531 521.05C75.4544 522.95 73.4171 524.446 71.168 525.445Z" fill="#008CFF"/>
<path opacity="0.2" d="M72.5332 525.882L75.6622 530.185L78.8333 520.981L79.2113 519.877C77.4708 522.451 75.1768 524.514 72.5332 525.882Z" fill="white"/>
<path opacity="0.2" d="M77.0483 521.027H78.8334L79.8834 517.944C79.8834 517.944 78.6864 519.347 77.0483 521.027Z" fill="black"/>
<path d="M69.6349 513.871L68.8579 522.201C71.9965 520.629 75.4908 520.117 78.8961 520.728L79.2951 519.578L81.7311 512.421L82.0041 511.685C77.7779 511.229 73.516 511.982 69.6349 513.871Z" fill="#008CFF"/>
<path d="M77.6152 499.743C79.0825 502.876 81.0126 505.721 83.3273 508.164L83.6213 507.29L84.3773 504.989L85.6374 501.192L86.2464 499.351L86.4144 498.822C85.4084 497.136 84.5372 495.357 83.8103 493.507L77.6152 499.743Z" fill="#008CFF"/>
<path d="M90.4673 489.02C91.2332 490.334 91.827 491.759 92.2313 493.254L93.1133 493.415L94.3313 493.622L96.2844 494.013L98.1534 494.358L98.8044 494.473C98.7713 491.278 97.6819 488.204 95.7384 485.821L90.4673 489.02Z" fill="#008CFF"/>
<path opacity="0.2" d="M91.6436 489.25C92.2703 490.575 92.7633 491.972 93.1136 493.415L94.3316 493.622C94.2287 493.446 94.1623 493.248 94.1369 493.041C94.1115 492.835 94.1278 492.624 94.1846 492.425C94.2392 492.243 94.326 492.075 94.4402 491.931C94.5543 491.786 94.6935 491.667 94.8497 491.582C95.0059 491.496 95.1759 491.445 95.3501 491.432C95.5243 491.419 95.6992 491.444 95.8646 491.505C96.0297 491.562 96.1827 491.655 96.3146 491.778C96.4466 491.901 96.5548 492.051 96.6331 492.22C96.7113 492.39 96.7579 492.574 96.7702 492.764C96.7825 492.953 96.7602 493.143 96.7046 493.323C96.6279 493.592 96.4821 493.832 96.2846 494.013L98.1536 494.358C98.0429 491.651 97.1863 489.043 95.6966 486.88L91.6436 489.25Z" fill="white"/>
<path opacity="0.2" d="M70.1393 514.193L69.6562 520.935C72.7566 519.793 76.0321 519.332 79.2954 519.578L81.7314 512.421C77.7925 511.898 73.7971 512.509 70.1393 514.193ZM76.8804 513.641C77.1326 513.545 77.4016 513.514 77.6665 513.55C77.9315 513.586 78.1854 513.688 78.4086 513.849C78.6318 514.009 78.8183 514.224 78.9539 514.476C79.0894 514.728 79.1702 515.011 79.1902 515.302C79.2102 515.594 79.1687 515.887 79.069 516.158C78.9693 516.43 78.8141 516.672 78.6152 516.868C78.4164 517.063 78.1792 517.205 77.9221 517.284C77.665 517.363 77.3948 517.376 77.1324 517.323C76.8801 517.419 76.6112 517.45 76.3462 517.414C76.0812 517.378 75.8274 517.276 75.6042 517.115C75.381 516.955 75.1944 516.74 75.0589 516.488C74.9233 516.236 74.8425 515.953 74.8225 515.661C74.8025 515.37 74.844 515.077 74.9437 514.805C75.0434 514.534 75.1987 514.291 75.3975 514.096C75.5964 513.901 75.8335 513.758 76.0906 513.679C76.3477 513.6 76.6179 513.587 76.8804 513.641Z" fill="white"/>
<path opacity="0.2" d="M78.686 500.111C80.0667 502.709 81.7232 505.119 83.6211 507.29L84.3771 504.989C83.9477 504.799 83.6025 504.433 83.4144 503.97C83.2264 503.506 83.2101 502.98 83.3691 502.504C83.5011 502.031 83.7898 501.629 84.1785 501.378C84.5671 501.127 85.0276 501.044 85.4691 501.146L86.0781 499.305C85.0111 498.012 84.1456 496.535 83.5161 494.933L78.686 500.111Z" fill="white"/>
<path d="M266.597 351.739L269.831 345.825L276.971 353.234C276.131 354.425 275.073 355.411 273.865 356.128C272.657 356.845 271.326 357.278 269.957 357.399L266.597 351.739Z" fill="#E4897B"/>
<path d="M274.829 337.91L279.89 345.71L276.971 353.235L269.831 345.825L274.829 337.91Z" fill="#E4897B"/>
<path d="M210.715 392.007C216.526 390.701 222.274 389.072 227.935 387.129C233.39 385.356 238.623 382.852 243.517 379.674C243.964 379.367 244.392 379.029 244.798 378.661L246.247 377.188C247.255 376.13 248.347 374.887 249.292 373.783C251.287 371.344 253.345 368.836 255.32 366.258C259.373 361.15 263.321 355.835 267.395 350.657L272.708 354.523C269.789 360.759 266.555 366.696 263.132 372.609C261.389 375.532 259.604 378.477 257.63 381.353C256.643 382.78 255.53 384.23 254.48 385.679C253.934 386.393 253.24 387.129 252.631 387.865C251.88 388.68 251.088 389.449 250.258 390.166C244.683 394.55 238.548 398.008 232.051 400.429C225.84 402.892 219.446 404.762 212.941 406.021L210.715 392.007Z" fill="#DC897C"/>
<path d="M208.006 412.118C216.847 420.517 236.272 406.113 236.272 406.113L228.523 385.15C221.395 386.061 214.363 387.718 207.523 390.097C195.238 394.676 201.244 405.722 208.006 412.118Z" fill="#008CFF"/>
<path opacity="0.6" d="M208.006 412.118C216.847 420.517 236.272 406.113 236.272 406.113L228.523 385.15C221.395 386.061 214.363 387.718 207.523 390.097C195.238 394.676 201.244 405.722 208.006 412.118Z" fill="#FAFAFA"/>
</svg>
